<svg version="1.1" width="900" height="650" viewBox="0 0 900 650" xmlns="http://www.w3.org/2000/svg" xmlns:xlink="http://www.w3.org/1999/xlink"><g xmlns="http://www.w3.org/2000/svg" id="obj_1" transform="translate(0,0)"><rect x="0" y="0" width="900" height="650" fill="#3fe3bb" stroke="none" stroke-width="1" fill-opacity="1"/><defs/></g><g xmlns="http://www.w3.org/2000/svg" id="obj_2"><g id="obj_3" transform="matrix(1,0,0,1,125,242.334)" opacity="1" display="inline"><path d="M 0 82.666 L 0 165.332 L 80.778 165.332 L 161.556 165.332 L 161.556 82.666 L 161.556 0 L 80.778 0 L 0 0 L 0 82.666 Z M 51.562 42.73 C 52.695 43.485 53.6 44.466 53.6 44.768 C 53.6 45.146 54.657 46.429 55.865 47.561 C 57.149 48.694 58.13 50.053 58.13 50.43 C 58.13 50.883 60.017 53.073 62.282 55.413 C 64.547 57.678 66.434 59.942 66.434 60.395 C 66.434 60.773 66.812 61.15 67.189 61.15 C 67.642 61.15 67.944 61.679 67.944 62.283 C 67.944 62.887 68.322 63.415 68.699 63.415 C 69.152 63.415 69.454 63.944 69.454 64.548 C 69.454 65.151 69.983 65.68 70.587 65.68 C 71.19 65.68 71.719 65.982 71.719 66.435 C 71.719 66.812 73.078 68.549 74.739 70.21 C 76.4 71.87 77.758 73.607 77.758 74.06 C 77.758 75.041 79.646 77.004 80.703 77.004 C 81.08 77.004 81.609 77.608 81.911 78.438 C 82.137 79.193 82.967 80.401 83.798 81.156 C 85.761 82.968 85.232 84.251 80.25 89.46 C 78.891 90.895 77.758 92.254 77.758 92.48 C 77.758 92.858 75.418 95.5 70.436 100.784 C 69.077 102.219 67.944 103.578 67.944 103.88 C 67.944 104.106 66.963 105.239 65.83 106.296 C 64.698 107.428 62.735 109.693 61.527 111.354 C 60.244 113.014 58.357 115.279 57.224 116.412 C 56.016 117.469 55.11 118.601 55.11 118.827 C 55.11 119.129 53.902 120.488 52.393 121.923 C 49.75 124.489 49.524 124.565 43.786 124.565 C 39.257 124.565 37.822 124.338 37.445 123.433 C 36.916 121.998 36.916 44.844 37.445 42.654 C 37.822 41.22 38.351 41.069 43.711 41.145 C 48.165 41.296 50.052 41.597 51.562 42.73 Z M 121.771 41.22 C 122.753 41.597 123.055 42.654 123.055 45.372 L 123.055 49.071 L 103.804 49.071 C 84.704 49.071 82.59 49.373 86.063 51.487 C 86.893 52.016 87.573 52.695 87.573 53.073 C 87.573 53.374 88.705 54.884 90.064 56.319 C 91.347 57.753 93.612 60.169 94.971 61.679 C 96.254 63.113 97.387 64.472 97.387 64.699 C 97.387 64.925 98.444 66.057 99.652 67.19 C 100.935 68.322 101.916 69.681 101.916 70.21 C 101.916 70.738 102.747 71.795 103.728 72.55 C 104.785 73.38 105.842 74.664 106.069 75.494 C 106.37 76.325 106.899 77.004 107.276 77.004 C 109.013 77.004 110.221 79.344 110.221 82.591 C 110.221 85.61 109.843 86.516 107.201 89.234 C 105.54 91.046 104.181 92.707 104.181 93.009 C 104.181 93.311 102.973 94.745 101.539 96.179 C 100.105 97.689 98.897 99.048 98.897 99.275 C 98.897 99.501 97.764 100.86 96.481 102.294 C 91.272 107.654 89.082 110.221 89.082 110.674 C 89.082 110.901 88.101 112.109 86.818 113.241 C 85.61 114.373 84.553 115.581 84.553 115.808 C 84.553 116.034 94.065 116.261 105.691 116.261 L 126.829 116.261 L 126.829 120.413 L 126.829 124.565 L 99.652 124.565 L 72.398 124.565 L 72.927 120.564 C 73.229 118.223 73.984 116.185 74.89 115.43 C 75.645 114.751 76.249 113.92 76.249 113.543 C 76.249 113.165 76.928 112.335 77.758 111.731 C 78.589 111.127 79.268 110.07 79.268 109.315 C 79.268 108.56 79.646 107.956 80.023 107.956 C 81.005 107.956 84.553 104.484 84.553 103.578 C 84.553 103.125 85.534 102.068 86.818 101.086 C 88.026 100.105 89.082 98.822 89.082 98.293 C 89.082 97.085 90.894 95.122 92.027 95.122 C 92.404 95.122 92.933 94.443 93.235 93.613 C 93.461 92.782 94.518 91.499 95.575 90.668 C 96.556 89.913 97.387 88.781 97.387 88.177 C 97.387 87.649 98.066 86.667 98.897 86.063 C 99.727 85.459 100.407 84.553 100.407 84.025 C 100.407 83.496 100.859 83.043 101.388 82.968 C 102.143 82.968 102.143 82.817 101.388 82.515 C 100.859 82.364 100.407 81.836 100.407 81.458 C 100.407 81.081 99.199 79.571 97.764 78.061 C 96.33 76.627 95.122 75.192 95.122 74.89 C 95.122 74.588 93.461 72.55 91.347 70.361 C 89.309 68.171 87.573 66.057 87.573 65.755 C 87.573 65.378 86.667 64.095 85.534 62.887 C 84.326 61.679 82.892 59.942 82.288 59.036 C 81.684 58.131 80.778 57.376 80.25 57.376 C 79.721 57.376 79.268 56.847 79.268 56.168 C 79.268 55.488 78.136 53.903 76.702 52.544 C 75.343 51.261 73.833 49.449 73.304 48.543 C 72.474 46.882 72.172 42.126 72.927 41.371 C 73.455 40.767 120.261 40.616 121.771 41.22 Z " fill-opacity="1" fill="#343d40" stroke="none" stroke-width="1" stroke-linecap="square" stroke-linejoin="miter"/><defs/></g><g id="obj_4" transform="matrix(1,0,0,1,328.078,295.18)" opacity="1" display="inline"><path d="M 7.2471 1.208 C 6.5681 1.812 6.0391 2.567 6.0391 2.718 C 6.0391 2.944 4.6801 14.872 3.02 29.141 C 1.359 43.484 0 56.016 0 57.073 C 0 58.583 0.377 58.885 2.265 58.885 C 3.548 58.885 4.5291 58.81 4.6051 58.659 C 4.6051 58.583 5.0581 55.79 5.5111 52.468 L 6.4171 46.429 L 11.0971 46.202 L 15.7782 45.976 L 16.1552 48.467 C 17.5902 58.583 17.5902 58.508 20.0053 58.508 C 21.8173 58.508 22.2703 58.206 22.1953 56.998 C 22.1193 56.167 20.7603 43.635 19.1752 29.065 C 16.0042 0.076 16.0042 0 11.0221 0 C 9.5871 0 7.8511 0.528 7.2471 1.208 Z M 13.2112 23.856 C 14.2682 32.236 15.0982 39.559 15.0982 40.238 C 15.0982 41.295 14.3432 41.522 10.8711 41.522 C 6.8701 41.522 6.6431 41.446 7.0211 39.785 C 7.2471 38.879 8.2291 31.405 9.2101 23.252 C 10.1161 15.099 11.0221 8.455 11.0971 8.606 C 11.1731 8.682 12.1542 15.552 13.2112 23.856 Z " fill-opacity="1" fill="#343d40" stroke="none" stroke-width="1" stroke-linecap="square" stroke-linejoin="miter"/><defs/></g><g id="obj_5" transform="matrix(1,0,0,1,380.991,295.242)" opacity="1" display="inline"><path d="M 7.8588 0.995 C 6.6508 1.901 5.9717 5.676 3.2537 29.079 C 1.4417 44.0269 0.0077 56.7849 0.0077 57.5399 C -0.0673 58.6719 0.3847 58.8989 2.4237 58.6719 L 4.8397 58.4459 L 5.7457 52.4059 C 6.1978 49.0849 6.6508 46.2909 6.6508 46.1399 C 6.7268 45.9899 8.8408 45.9899 11.4828 46.1399 L 16.1639 46.3669 L 16.9179 52.4059 L 17.6729 58.4459 L 20.165 58.6719 C 21.75 58.8229 22.58 58.5969 22.58 57.9169 C 22.58 57.3889 21.222 44.7059 19.485 29.758 C 17.2199 9.375 16.0879 2.279 15.2579 1.222 C 13.8229 -0.288 9.8218 -0.439 7.8588 0.995 Z M 15.2579 40.8559 C 15.0309 41.2329 13.2949 41.4599 11.1808 41.4599 C 6.7268 41.4599 6.8778 42.6679 8.9918 25.984 C 11.4068 6.808 11.2558 6.808 13.5209 24.474 C 14.5779 33.1559 15.4089 40.5539 15.2579 40.8559 Z " fill-opacity="1" fill="#343d40" stroke="none" stroke-width="1" stroke-linecap="square" stroke-linejoin="miter"/><defs/></g><g id="obj_6" transform="matrix(1,0,0,1,476.168,295.293)" opacity="1" display="inline"><path d="M 0.2546 0.7935 C 0.0285 1.3215 -0.0475 14.5334 0.0285 30.0842 L 0.2546 58.395 L 2.5198 58.395 L 4.784 58.395 L 4.784 29.3302 L 4.784 0.2645 L 2.6708 0.0385 C 1.4627 -0.1125 0.4816 0.1895 0.2546 0.7935 Z " fill-opacity="1" fill="#343d40" stroke="none" stroke-width="1" stroke-linecap="square" stroke-linejoin="miter"/><defs/></g><g id="obj_7" transform="matrix(1,0,0,1,511.527,295.105)" opacity="1" display="inline"><path d="M 0 29.442 L 0 58.96 L 2.265 58.96 L 4.53 58.96 L 4.53 41.068 C 4.53 31.254 4.756 23.403 4.983 23.629 C 5.209 23.931 7.701 31.858 10.418 41.37 L 15.476 58.583 L 17.741 58.583 L 20.006 58.583 L 20.006 29.518 L 20.006 0.452 L 17.741 0.452 L 15.476 0.452 L 15.099 17.816 L 14.722 35.18 L 9.814 17.816 L 4.907 0.452 L 2.492 0.226 L 0 0 L 0 29.442 Z " fill-opacity="1" fill="#343d40" stroke="none" stroke-width="1" stroke-linecap="square" stroke-linejoin="miter"/><defs/></g><g id="obj_8" transform="matrix(1,0,0,1,725.873,295.18)" opacity="1" display="inline"><path d="M 7.3792 0.9814 C 6.3222 1.7364 5.5673 6.4924 3.0763 27.5552 C -0.9246 62.282 -0.7736 58.432 2.0943 58.734 C 4.6613 58.961 4.4353 59.564 5.7943 49.5991 L 6.2472 46.0511 L 11.0032 46.0511 L 15.7591 46.0511 L 16.2121 50.3541 C 17.1931 58.508 17.3441 58.885 19.76 58.885 C 21.647 58.885 21.949 58.583 21.949 56.696 C 21.949 55.488 20.59 42.6541 18.93 28.1592 C 15.6831 -0.4526 15.8341 0.0004 11.0032 0.0004 C 9.7192 0.0004 8.0582 0.4534 7.3792 0.9814 Z M 13.2681 25.3662 C 14.3241 33.6702 15.1551 40.7661 15.1551 40.9931 C 15.1551 41.2951 13.2681 41.5211 10.9272 41.5211 L 6.6242 41.5211 L 7.0772 38.6531 C 7.3042 37.1432 8.2852 29.5932 9.2662 21.8933 C 10.1722 14.1933 11.0782 8.4554 11.1542 9.0594 C 11.3052 9.6634 12.2112 16.9863 13.2681 25.3662 Z " fill-opacity="1" fill="#343d40" stroke="none" stroke-width="1" stroke-linecap="square" stroke-linejoin="miter"/><defs/></g><g id="obj_9" transform="matrix(1,0,0,1,302.41,295.935)" opacity="1" display="inline"><path d="M 0 28.6881 L 0 57.3753 L 1.963 57.8283 C 5.0581 58.5833 15.8542 57.5263 17.8172 56.2433 C 18.7982 55.6393 19.7802 54.0543 20.0062 52.6953 C 20.2332 51.3363 20.3842 39.5592 20.2332 26.5741 L 20.0062 2.869 L 18.1942 1.434 C 16.6842 0.226 15.1752 0 8.2291 0 L 0 0 L 0 28.6881 Z M 14.1932 4.681 C 15.4012 5.888 15.4762 49.9773 14.3442 52.1663 C 13.6652 53.2993 12.6831 53.6013 9.4371 53.6013 L 5.2851 53.6013 L 5.2851 28.6881 L 5.2851 3.775 L 9.2861 3.775 C 11.4751 3.775 13.6652 4.152 14.1932 4.681 Z " fill-opacity="1" fill="#343d40" stroke="none" stroke-width="1" stroke-linecap="square" stroke-linejoin="miter"/><defs/></g><g id="obj_10" transform="matrix(1,0,0,1,353.822,295.935)" opacity="1" display="inline"><path d="M 0.3763 0.679 C -0.8317 2.567 0.9053 3.699 5.0573 3.926 L 9.3602 4.152 L 9.5872 31.179 L 9.7382 58.206 L 12.2292 57.979 L 14.6451 57.753 L 14.8711 30.726 L 15.0221 3.775 L 19.1741 3.775 C 23.1 3.775 23.327 3.699 23.327 1.887 L 23.327 0 L 12.0782 0 C 5.8122 0 0.6033 0.302 0.3763 0.679 Z " fill-opacity="1" fill="#343d40" stroke="none" stroke-width="1" stroke-linecap="square" stroke-linejoin="miter"/><defs/></g><g id="obj_11" transform="matrix(1,0,0,1,423.2,295.935)" opacity="1" display="inline"><path d="M 1.887 1.887 C 0.151 3.548 0 4.303 0 10.494 C 0 14.193 0.302 18.118 0.679 19.175 C 1.132 20.157 4.001 23.931 7.1719 27.48 C 14.1168 35.255 15.0988 37.445 15.0988 44.919 C 15.0988 52.393 14.4188 53.6 10.3429 53.6 C 6.1149 53.6 5.4349 52.996 5.1329 49.448 C 4.9069 46.655 4.7559 46.429 2.491 46.202 L 0 45.976 L 0 49.75 C 0 52.619 0.453 53.978 1.812 55.563 C 3.473 57.526 3.926 57.677 9.5119 57.677 C 12.7579 57.677 16.2308 57.224 17.1368 56.771 C 19.6278 55.412 20.6098 50.656 20.1568 42.578 C 19.7038 34.425 18.3448 31.405 13.2109 26.423 C 11.2479 24.535 8.6819 21.667 7.4739 20.081 C 5.5109 17.439 5.2839 16.533 5.2839 11.324 C 5.2839 4.756 5.8879 3.775 9.8899 3.775 C 13.4378 3.775 15.0988 5.36 15.0988 8.757 C 15.0988 11.098 15.3248 11.324 17.2878 11.324 C 20.1568 11.324 20.6848 10.494 20.0058 6.341 C 19.2508 0.906 17.7408 0 10.1919 0 C 4.303 0 3.548 0.151 1.887 1.887 Z " fill-opacity="1" fill="#343d40" stroke="none" stroke-width="1" stroke-linecap="square" stroke-linejoin="miter"/><defs/></g><g id="obj_12" transform="matrix(1,0,0,1,448.868,295.935)" opacity="1" display="inline"><path d="M 2.7931 0.906 C 0.3021 2.869 0.0001 5.964 0.0001 28.7632 C 0.0001 58.2815 -0.1509 57.8285 11.55 57.6775 C 15.853 57.6014 16.986 57.2994 18.571 55.7904 C 20.232 54.2804 20.383 53.4494 20.232 49.8264 C 20.005 45.7494 19.93 45.6744 17.741 45.6744 C 15.627 45.6744 15.476 45.8254 15.249 49.0714 C 15.098 50.8834 14.57 52.6944 14.117 52.9964 C 12.683 53.9024 7.1721 53.6764 6.1901 52.6944 C 4.9821 51.4874 4.9071 7.3981 6.0391 5.209 C 6.6431 4.152 7.6251 3.775 10.04 3.775 C 14.268 3.775 14.947 4.379 15.249 7.9271 C 15.476 10.7201 15.627 10.9471 17.967 11.1731 L 20.383 11.3991 L 20.383 7.5491 C 20.383 4.454 20.005 3.322 18.496 1.887 C 16.835 0.151 16.08 0 10.342 0 C 6.4921 0 3.5481 0.377 2.7931 0.906 Z " fill-opacity="1" fill="#343d40" stroke="none" stroke-width="1" stroke-linecap="square" stroke-linejoin="miter"/><defs/></g><g id="obj_13" transform="matrix(1,0,0,1,488.879,295.935)" opacity="1" display="inline"><path d="M 0 28.688 L 0 57.451 L 8.1529 57.224 C 15.6269 56.998 16.2309 56.922 16.2309 55.488 C 16.2309 54.129 15.6269 53.978 10.7959 53.751 L 5.285 53.525 L 5.285 41.899 L 5.285 30.197 L 10.2669 30.197 L 15.1739 30.197 L 14.9479 28.084 C 14.7209 26.121 14.4949 26.045 10.0409 25.819 L 5.285 25.592 L 5.285 14.721 L 5.285 3.775 L 10.4939 3.775 C 15.7029 3.775 16.8349 3.171 16.0049 0.906 C 15.7779 0.302 13.4379 0 7.8509 0 L 0 0 L 0 28.688 Z " fill-opacity="1" fill="#343d40" stroke="none" stroke-width="1" stroke-linecap="square" stroke-linejoin="miter"/><defs/></g><g id="obj_14" transform="matrix(1,0,0,1,538.705,295.935)" opacity="1" display="inline"><path d="M 1.887 1.887 L 0 3.699 L 0 28.612 L 0 53.525 L 1.812 55.563 C 3.4731 57.526 3.9261 57.677 9.6632 57.677 C 18.4964 57.677 21.0635 55.261 20.2325 47.863 C 20.0064 45.976 19.7044 45.674 17.7414 45.674 C 15.6273 45.674 15.4763 45.9 15.2503 48.693 C 14.8723 52.619 13.9663 53.6 10.5692 53.6 C 4.9071 53.6 5.2841 55.337 5.2841 29.14 C 5.2841 11.852 5.5111 5.36 6.1901 4.681 C 6.7192 4.152 8.4552 3.775 10.1922 3.775 C 14.0423 3.775 15.0993 4.756 15.0993 8.531 C 15.0993 11.324 15.1743 11.399 17.5904 11.173 C 20.0064 10.947 20.0064 10.947 20.0064 6.87 C 19.9304 1.057 18.4204 0 10.0412 0 C 4.3031 0 3.5481 0.151 1.887 1.887 Z " fill-opacity="1" fill="#343d40" stroke="none" stroke-width="1" stroke-linecap="square" stroke-linejoin="miter"/><defs/></g><g id="obj_15" transform="matrix(1,0,0,1,565.128,295.935)" opacity="1" display="inline"><path d="M 0 28.688 L 0 57.375 L 7.927 57.375 C 15.853 57.375 15.853 57.375 15.853 55.488 C 15.853 53.751 15.627 53.676 10.418 53.449 L 4.907 53.223 L 4.907 41.899 L 4.907 30.575 L 9.814 30.197 C 14.419 29.82 14.721 29.744 14.721 27.933 C 14.721 26.121 14.495 26.045 9.587 25.819 L 4.454 25.592 L 4.68 14.872 L 4.907 4.152 L 10.418 3.926 C 15.627 3.699 15.853 3.624 15.853 1.887 C 15.853 0 15.853 0 7.927 0 L 0 0 L 0 28.688 Z " fill-opacity="1" fill="#343d40" stroke="none" stroke-width="1" stroke-linecap="square" stroke-linejoin="miter"/><defs/></g><g id="obj_16" transform="matrix(1,0,0,1,602.12,295.935)" opacity="1" display="inline"><path d="M 0.151 28.839 L 0.377 57.753 L 2.6419 57.753 L 4.9069 57.753 L 5.1329 44.315 L 5.2839 30.877 L 10.0398 31.103 L 14.7207 31.33 L 15.0987 44.541 L 15.4757 57.753 L 17.7406 57.753 L 20.0056 57.753 L 20.2316 44.39 C 20.3826 32.16 20.3076 30.877 19.0236 29.593 C 17.7406 28.31 17.7406 28.084 18.7976 27.404 C 19.7786 26.8 20.0056 24.762 20.2316 15.778 C 20.3826 5.964 20.3076 4.681 18.9486 2.416 L 17.3627 0 L 8.6818 0 L 0 0 L 0.151 28.839 Z M 14.3437 5.209 C 15.1737 6.794 15.4007 23.176 14.6457 25.215 C 14.2677 26.121 13.0597 26.423 9.7378 26.423 L 5.2839 26.423 L 5.2839 15.627 C 5.2839 9.663 5.5109 4.53 5.8129 4.303 C 6.0389 4.001 7.9268 3.775 9.8888 3.775 C 12.7577 3.775 13.7397 4.077 14.3437 5.209 Z " fill-opacity="1" fill="#343d40" stroke="none" stroke-width="1" stroke-linecap="square" stroke-linejoin="miter"/><defs/></g><g id="obj_17" transform="matrix(1,0,0,1,629.297,295.935)" opacity="1" display="inline"><path d="M 0 28.688 L 0 57.375 L 7.927 57.375 C 15.854 57.375 15.854 57.375 15.854 55.488 C 15.854 53.751 15.628 53.676 10.418 53.449 L 4.907 53.223 L 4.907 41.899 L 4.907 30.575 L 9.814 30.197 C 14.42 29.82 14.722 29.744 14.722 27.933 C 14.722 26.121 14.495 26.045 9.588 25.819 L 4.454 25.592 L 4.681 14.872 L 4.907 4.152 L 10.418 3.926 C 15.628 3.699 15.854 3.624 15.854 1.887 C 15.854 0 15.854 0 7.927 0 L 0 0 L 0 28.688 Z " fill-opacity="1" fill="#343d40" stroke="none" stroke-width="1" stroke-linecap="square" stroke-linejoin="miter"/><defs/></g><g id="obj_18" transform="matrix(1,0,0,1,649.681,295.935)" opacity="1" display="inline"><path d="M 0 1.887 C 0 3.548 0.302 3.699 4.378 3.926 L 8.681 4.152 L 9.059 30.952 L 9.436 57.753 L 11.701 57.753 L 13.966 57.753 L 14.192 30.801 L 14.343 3.85 L 18.722 3.624 C 22.497 3.397 23.025 3.171 23.252 1.661 L 23.478 0 L 11.777 0 L 0 0 L 0 1.887 Z " fill-opacity="1" fill="#343d40" stroke="none" stroke-width="1" stroke-linecap="square" stroke-linejoin="miter"/><defs/></g><g id="obj_19" transform="matrix(1,0,0,1,678.368,295.935)" opacity="1" display="inline"><path d="M 0.151 28.8391 L 0.378 57.753 L 2.265 57.753 L 4.152 57.753 L 4.379 44.315 L 4.53 30.9521 L 9.437 30.9521 L 14.3439 30.9521 L 14.4949 44.315 L 14.7209 57.753 L 17.2129 57.979 L 19.6279 58.206 L 19.6279 44.315 C 19.6279 32.7641 19.4019 30.1971 18.4959 29.4431 C 17.4389 28.5371 17.4389 28.3101 18.4959 27.1781 C 19.4019 26.1961 19.6279 23.7051 19.6279 14.6461 C 19.6279 -0.2258 19.7789 0.0002 8.229 0.0002 L 0 0.0002 L 0.151 28.8391 Z M 13.4379 4.3792 C 14.1169 4.9072 14.3439 7.6252 14.1929 15.5521 L 13.9659 26.0451 L 9.437 26.0451 L 4.907 26.0451 L 4.681 15.9291 C 4.605 10.3432 4.681 5.2852 4.832 4.7562 C 5.285 3.6242 11.8529 3.3972 13.4379 4.3792 Z " fill-opacity="1" fill="#343d40" stroke="none" stroke-width="1" stroke-linecap="square" stroke-linejoin="miter"/><defs/></g><g id="obj_20" transform="matrix(1,0,0,1,704.791,295.935)" opacity="1" display="inline"><path d="M 0 28.688 L 0 57.451 L 8.1532 57.224 C 15.6275 56.998 16.2315 56.922 16.2315 55.488 C 16.2315 54.129 15.6275 53.978 10.7953 53.751 L 5.2842 53.525 L 5.2842 41.899 L 5.2842 30.197 L 10.2673 30.197 L 15.1745 30.197 L 14.9485 28.084 C 14.7214 26.121 14.4954 26.045 10.0403 25.819 L 5.2842 25.592 L 5.2842 14.721 L 5.2842 3.775 L 10.4933 3.775 C 15.7025 3.775 16.8355 3.171 16.0045 0.906 C 15.7785 0.302 13.4384 0 7.8512 0 L 0 0 L 0 28.688 Z " fill-opacity="1" fill="#343d40" stroke="none" stroke-width="1" stroke-linecap="square" stroke-linejoin="miter"/><defs/></g><g id="obj_21" transform="matrix(1,0,0,1,751.521,295.935)" opacity="1" display="inline"><path d="M 0.227 1.661 C 0.453 3.171 0.982 3.397 4.757 3.624 L 9.135 3.85 L 9.286 30.801 L 9.513 57.753 L 11.777 57.753 L 14.042 57.753 L 14.42 30.952 L 14.797 4.152 L 19.176 3.926 C 23.177 3.699 23.479 3.548 23.479 1.887 L 23.479 0 L 11.702 0 L 0 0 L 0.227 1.661 Z " fill-opacity="1" fill="#343d40" stroke="none" stroke-width="1" stroke-linecap="square" stroke-linejoin="miter"/><defs/></g></g></svg>