<?xml version="1.0" standalone="no"?>
<!DOCTYPE svg PUBLIC "-//W3C//DTD SVG 20010904//EN"
 "http://www.w3.org/TR/2001/REC-SVG-20010904/DTD/svg10.dtd">
<svg version="1.0" xmlns="http://www.w3.org/2000/svg"
 width="896.000000pt" height="232.000000pt" viewBox="0 0 896.000000 232.000000"
 preserveAspectRatio="xMidYMid meet">
<metadata>
Created by potrace 1.12, written by Peter Selinger 2001-2015
</metadata>
<g transform="translate(0.000000,232.000000) scale(0.100000,-0.100000)"
fill="#000000" stroke="none">
<path d="M70 1155 l0 -1095 1070 0 1070 0 0 1095 0 1095 -1070 0 -1070 0 0
-1095z m683 529 c15 -10 27 -23 27 -27 0 -5 14 -22 30 -37 17 -15 30 -33 30
-38 0 -6 25 -35 55 -66 30 -30 55 -60 55 -66 0 -5 5 -10 10 -10 6 0 10 -7 10
-15 0 -8 5 -15 10 -15 6 0 10 -7 10 -15 0 -8 7 -15 15 -15 8 0 15 -4 15 -10 0
-5 18 -28 40 -50 22 -22 40 -45 40 -51 0 -13 25 -39 39 -39 5 0 12 -8 16 -19
3 -10 14 -26 25 -36 26 -24 19 -41 -47 -110 -18 -19 -33 -37 -33 -40 0 -5 -31
-40 -97 -110 -18 -19 -33 -37 -33 -41 0 -3 -13 -18 -28 -32 -15 -15 -41 -45
-57 -67 -17 -22 -42 -52 -57 -67 -16 -14 -28 -29 -28 -32 0 -4 -16 -22 -36
-41 -35 -34 -38 -35 -114 -35 -60 0 -79 3 -84 15 -7 19 -7 1041 0 1070 5 19
12 21 83 20 59 -2 84 -6 104 -21z m930 20 c13 -5 17 -19 17 -55 l0 -49 -255 0
c-253 0 -281 -4 -235 -32 11 -7 20 -16 20 -21 0 -4 15 -24 33 -43 17 -19 47
-51 65 -71 17 -19 32 -37 32 -40 0 -3 14 -18 30 -33 17 -15 30 -33 30 -40 0
-7 11 -21 24 -31 14 -11 28 -28 31 -39 4 -11 11 -20 16 -20 23 0 39 -31 39
-74 0 -40 -5 -52 -40 -88 -22 -24 -40 -46 -40 -50 0 -4 -16 -23 -35 -42 -19
-20 -35 -38 -35 -41 0 -3 -15 -21 -32 -40 -69 -71 -98 -105 -98 -111 0 -3 -13
-19 -30 -34 -16 -15 -30 -31 -30 -34 0 -3 126 -6 280 -6 l280 0 0 -55 0 -55
-360 0 -361 0 7 53 c4 31 14 58 26 68 10 9 18 20 18 25 0 5 9 16 20 24 11 8
20 22 20 32 0 10 5 18 10 18 13 0 60 46 60 58 0 6 13 20 30 33 16 13 30 30 30
37 0 16 24 42 39 42 5 0 12 9 16 20 3 11 17 28 31 39 13 10 24 25 24 33 0 7 9
20 20 28 11 8 20 20 20 27 0 7 6 13 13 14 10 0 10 2 0 6 -7 2 -13 9 -13 14 0
5 -16 25 -35 45 -19 19 -35 38 -35 42 0 4 -22 31 -50 60 -27 29 -50 57 -50 61
0 5 -12 22 -27 38 -16 16 -35 39 -43 51 -8 12 -20 22 -27 22 -7 0 -13 7 -13
16 0 9 -15 30 -34 48 -18 17 -38 41 -45 53 -11 22 -15 85 -5 95 7 8 627 10
647 2z"/>
<path d="M2856 1534 c-9 -8 -16 -18 -16 -20 0 -3 -18 -161 -40 -350 -22 -190
-40 -356 -40 -370 0 -20 5 -24 30 -24 17 0 30 1 31 3 0 1 6 38 12 82 l12 80
62 3 62 3 5 -33 c19 -134 19 -133 51 -133 24 0 30 4 29 20 -1 11 -19 177 -40
370 -42 384 -42 385 -108 385 -19 0 -42 -7 -50 -16z m79 -300 c14 -111 25
-208 25 -217 0 -14 -10 -17 -56 -17 -53 0 -56 1 -51 23 3 12 16 111 29 219 12
108 24 196 25 194 1 -1 14 -92 28 -202z"/>
<path d="M3565 1536 c-16 -12 -25 -62 -61 -372 -24 -198 -43 -367 -43 -377 -1
-15 5 -18 32 -15 l32 3 12 80 c6 44 12 81 12 83 1 2 29 2 64 0 l62 -3 10 -80
10 -80 33 -3 c21 -2 32 1 32 10 0 7 -18 175 -41 373 -30 270 -45 364 -56 378
-19 20 -72 22 -98 3z m98 -528 c-3 -5 -26 -8 -54 -8 -59 0 -57 -16 -29 205 32
254 30 254 60 20 14 -115 25 -213 23 -217z"/>
<path d="M4725 1538 c-3 -7 -4 -182 -3 -388 l3 -375 30 0 30 0 0 385 0 385
-28 3 c-16 2 -29 -2 -32 -10z"/>
<path d="M5190 1161 l0 -391 30 0 30 0 0 237 c0 130 3 234 6 231 3 -4 36 -109
72 -235 l67 -228 30 0 30 0 0 385 0 385 -30 0 -30 0 -5 -230 -5 -230 -65 230
-65 230 -32 3 -33 3 0 -390z"/>
<path d="M8127 1537 c-14 -10 -24 -73 -57 -352 -53 -460 -51 -409 -13 -413 34
-3 31 -11 49 121 l6 47 63 0 63 0 6 -57 c13 -108 15 -113 47 -113 25 0 29 4
29 29 0 16 -18 186 -40 378 -43 379 -41 373 -105 373 -17 0 -39 -6 -48 -13z
m78 -323 c14 -110 25 -204 25 -207 0 -4 -25 -7 -56 -7 l-57 0 6 38 c3 20 16
120 29 222 12 102 24 178 25 170 2 -8 14 -105 28 -216z"/>
<path d="M2420 1160 l0 -380 26 -6 c41 -10 184 4 210 21 13 8 26 29 29 47 3
18 5 174 3 346 l-3 314 -24 19 c-20 16 -40 19 -132 19 l-109 0 0 -380z m188
318 c16 -16 17 -600 2 -629 -9 -15 -22 -19 -65 -19 l-55 0 0 330 0 330 53 0
c29 0 58 -5 65 -12z"/>
<path d="M3106 1531 c-16 -25 7 -40 62 -43 l57 -3 3 -358 2 -358 33 3 32 3 3
358 2 357 55 0 c52 0 55 1 55 25 l0 25 -149 0 c-83 0 -152 -4 -155 -9z"/>
<path d="M4045 1515 c-23 -22 -25 -32 -25 -114 0 -49 4 -101 9 -115 6 -13 44
-63 86 -110 92 -103 105 -132 105 -231 0 -99 -9 -115 -63 -115 -56 0 -65 8
-69 55 -3 37 -5 40 -35 43 l-33 3 0 -50 c0 -38 6 -56 24 -77 22 -26 28 -28
102 -28 43 0 89 6 101 12 33 18 46 81 40 188 -6 108 -24 148 -92 214 -26 25
-60 63 -76 84 -26 35 -29 47 -29 116 0 87 8 100 61 100 47 0 69 -21 69 -66 0
-31 3 -34 29 -34 38 0 45 11 36 66 -10 72 -30 84 -130 84 -78 0 -88 -2 -110
-25z"/>
<path d="M4397 1528 c-33 -26 -37 -67 -37 -369 0 -391 -2 -385 153 -383 57 1
72 5 93 25 22 20 24 31 22 79 -3 54 -4 55 -33 55 -28 0 -30 -2 -33 -45 -2 -24
-9 -48 -15 -52 -19 -12 -92 -9 -105 4 -16 16 -17 600 -2 629 8 14 21 19 53 19
56 0 65 -8 69 -55 3 -37 5 -40 36 -43 l32 -3 0 51 c0 41 -5 56 -25 75 -22 23
-32 25 -108 25 -51 0 -90 -5 -100 -12z"/>
<path d="M4890 1160 l0 -381 108 3 c99 3 107 4 107 23 0 18 -8 20 -72 23 l-73
3 0 154 0 155 66 0 65 0 -3 28 c-3 26 -6 27 -65 30 l-63 3 0 144 0 145 69 0
c69 0 84 8 73 38 -3 8 -34 12 -108 12 l-104 0 0 -380z"/>
<path d="M5575 1515 l-25 -24 0 -330 0 -330 24 -27 c22 -26 28 -28 104 -28
117 0 151 32 140 130 -3 25 -7 29 -33 29 -28 0 -30 -3 -33 -40 -5 -52 -17 -65
-62 -65 -75 0 -70 -23 -70 324 0 229 3 315 12 324 7 7 30 12 53 12 51 0 65
-13 65 -63 0 -37 1 -38 33 -35 32 3 32 3 32 57 -1 77 -21 91 -132 91 -76 0
-86 -2 -108 -25z"/>
<path d="M5900 1160 l0 -380 105 0 c105 0 105 0 105 25 0 23 -3 24 -72 27
l-73 3 0 150 0 150 65 5 c61 5 65 6 65 30 0 24 -3 25 -68 28 l-68 3 3 142 3
142 73 3 c69 3 72 4 72 27 0 25 0 25 -105 25 l-105 0 0 -380z"/>
<path d="M6392 1158 l3 -383 30 0 30 0 3 178 2 178 63 -3 62 -3 5 -175 5 -175
30 0 30 0 3 177 c2 162 1 179 -16 196 -17 17 -17 20 -3 29 13 8 16 35 19 154
2 130 1 147 -17 177 l-21 32 -115 0 -115 0 2 -382z m188 313 c11 -21 14 -238
4 -265 -5 -12 -21 -16 -65 -16 l-59 0 0 143 c0 79 3 147 7 150 3 4 28 7 54 7
38 0 51 -4 59 -19z"/>
<path d="M6750 1160 l0 -380 105 0 c105 0 105 0 105 25 0 23 -3 24 -72 27
l-73 3 0 150 0 150 65 5 c61 5 65 6 65 30 0 24 -3 25 -68 28 l-68 3 3 142 3
142 73 3 c69 3 72 4 72 27 0 25 0 25 -105 25 l-105 0 0 -380z"/>
<path d="M7020 1515 c0 -22 4 -24 58 -27 l57 -3 5 -355 5 -355 30 0 30 0 3
357 2 357 58 3 c50 3 57 6 60 26 l3 22 -155 0 -156 0 0 -25z"/>
<path d="M7402 1158 l3 -383 25 0 25 0 3 178 2 177 65 0 65 0 2 -177 3 -178
33 -3 32 -3 0 184 c0 153 -3 187 -15 197 -14 12 -14 15 0 30 12 13 15 46 15
166 0 197 2 194 -151 194 l-109 0 2 -382z m176 324 c9 -7 12 -43 10 -148 l-3
-139 -60 0 -60 0 -3 134 c-1 74 0 141 2 148 6 15 93 18 114 5z"/>
<path d="M7750 1160 l0 -381 108 3 c99 3 107 4 107 23 0 18 -8 20 -72 23 l-73
3 0 154 0 155 66 0 65 0 -3 28 c-3 26 -6 27 -65 30 l-63 3 0 144 0 145 69 0
c69 0 84 8 73 38 -3 8 -34 12 -108 12 l-104 0 0 -380z"/>
<path d="M8372 1518 c3 -20 10 -23 60 -26 l58 -3 2 -357 3 -357 30 0 30 0 5
355 5 355 58 3 c53 3 57 5 57 27 l0 25 -156 0 -155 0 3 -22z"/>
</g>
</svg>
