<svg version="1.1" width="900" height="650" viewBox="0 0 900 650" xmlns="http://www.w3.org/2000/svg" xmlns:xlink="http://www.w3.org/1999/xlink"><g xmlns="http://www.w3.org/2000/svg" id="obj_1" transform="translate(0,0)"><rect x="0" y="0" width="900" height="650" fill="#343d40" stroke="none" stroke-width="1" fill-opacity="1"/><defs/></g><g xmlns="http://www.w3.org/2000/svg" id="obj_2"><g id="obj_3" transform="matrix(1,0,0,1,125,229.734)" opacity="1" display="inline"><path d="M 70.441 18.683 C 66.163 17.344 61.496 16.756 57.206 16.756 C 44.76 16.756 39.111 23.5 39.111 38.534 L 39.111 46.236 L 64.225 46.236 L 64.225 62.229 L 39.111 62.229 L 39.111 141.982 L 18.49 141.982 L 18.49 62.229 L 0 62.229 L 0 46.235 L 18.49 46.235 L 18.49 38.918 C 18.49 12.713 31.143 0 56.244 0 C 61.686 0 66.944 0.576 72.006 1.734 L 70.441 18.683 Z " fill-opacity="1" fill="#3fe3bb" stroke="none" stroke-width="1" stroke-linecap="square" stroke-linejoin="miter"/><defs/></g><g id="obj_4" transform="matrix(1,0,0,1,207.108,274.035)" opacity="1" display="inline"><path d="M 49.426 20.4243 C 30.16 16.7713 20.822 30.0652 20.822 58.7601 L 20.822 97.68 L 0 97.68 L 0 1.9333 L 19.846 1.9333 C 19.846 7.3293 19.259 15.8073 17.902 23.1263 L 18.297 23.1263 C 22.568 10.2143 32.307 -1.7297 50.402 0.2073 L 49.426 20.4243 Z " fill-opacity="1" fill="#3fe3bb" stroke="none" stroke-width="1" stroke-linecap="square" stroke-linejoin="miter"/><defs/></g><g id="obj_5" transform="matrix(1,0,0,1,367.418,274.047)" opacity="1" display="inline"><path d="M 22.581 99.602 C 15.188 99.602 7.219 98.636 1.182 96.896 L 2.742 79.37 C 8.776 81.688 16.546 83.027 23.939 83.027 C 34.839 83.027 42.433 78.22 42.433 70.504 C 42.433 50.853 0 62.803 0 29.665 C 0 12.906 12.856 0 39.519 0 C 45.357 0 52.161 0.77 57.801 1.921 L 56.641 18.492 C 50.999 16.759 44.568 15.795 38.344 15.795 C 26.867 15.795 21.41 20.412 21.41 27.742 C 21.41 46.623 64.232 36.215 64.232 68.393 C 64.232 86.498 48.27 99.602 22.581 99.602 Z " fill-opacity="1" fill="#3fe3bb" stroke="none" stroke-width="1" stroke-linecap="square" stroke-linejoin="miter"/><defs/></g><g id="obj_6" transform="matrix(1,0,0,1,441.158,239.938)" opacity="1" display="inline"><path d="M 45.354 133.507 C 24.725 133.507 18.496 125.611 18.496 104.228 L 18.496 52.023 L 0 52.023 L 0 36.03 L 18.496 36.03 L 18.496 5.586 L 39.307 0 L 39.307 36.029 L 64.625 36.029 L 64.625 52.023 L 39.307 52.023 L 39.307 97.861 C 39.307 112.127 42.233 115.982 51.971 115.982 C 56.244 115.982 60.341 115.398 63.838 114.63 L 65.59 131.192 C 59.745 132.557 51.773 133.507 45.354 133.507 Z " fill-opacity="1" fill="#3fe3bb" stroke="none" stroke-width="1" stroke-linecap="square" stroke-linejoin="miter"/><defs/></g><g id="obj_7" transform="matrix(1,0,0,1,508.881,275.968)" opacity="1" display="inline"><path d="M 59.145 102.483 C 47.086 134.481 34.24 144.298 12.25 144.298 C 8.556 144.298 3.303 143.717 0 143.133 L 2.326 125.227 C 5.634 126.196 10.298 126.761 14.199 126.761 C 23.336 126.761 31.905 122.338 38.322 105.186 L 41.831 95.747 L 5.634 0 L 28.978 0 L 44.739 43.735 C 47.872 52.21 50.194 60.686 52.332 68.779 L 52.535 68.779 C 54.472 61.07 58.568 48.545 62.059 38.913 L 75.889 0 L 98.257 0 L 59.145 102.483 Z " fill-opacity="1" fill="#3fe3bb" stroke="none" stroke-width="1" stroke-linecap="square" stroke-linejoin="miter"/><defs/></g><g id="obj_8" transform="matrix(1,0,0,1,623.475,231.081)" opacity="1" display="inline"><path d="M 0 140.634 L 0 0 L 20.823 0 L 20.823 140.634 L 0 140.634 Z " fill-opacity="1" fill="#3fe3bb" stroke="none" stroke-width="1" stroke-linecap="square" stroke-linejoin="miter"/><defs/></g><g id="obj_9" transform="matrix(1,0,0,1,274.466,240.943)" opacity="1" display="inline"><path d="M 0 12.954 L 0 0 L 71.816 0 L 71.816 12.954 L 0 12.954 Z " fill-opacity="1" fill="#3fe3bb" stroke="none" stroke-width="1" stroke-linecap="square" stroke-linejoin="miter"/><defs/></g><g id="obj_10" transform="matrix(1,0,0,1,266.447,274.047)" opacity="1" display="inline"><path d="M 83.095 51.434 L 21.41 51.434 C 20.816 73.208 30.749 83.027 50.013 83.027 C 59.353 83.027 69.092 81.106 77.831 77.245 L 80.562 93.437 C 70.454 97.478 58.383 99.601 46.312 99.601 C 16.545 99.601 0 84.188 0 50.466 C 0 21.575 15.963 0 44.184 0 C 71.811 0 83.678 18.683 83.678 41.416 C 83.678 44.115 83.478 47.386 83.095 51.434 Z M 43.395 15.21 C 31.72 15.21 23.556 23.693 21.804 37.174 L 62.861 37.174 C 63.244 23.502 55.656 15.21 43.395 15.21 Z " fill-opacity="1" fill="#3fe3bb" stroke="none" stroke-width="1" stroke-linecap="square" stroke-linejoin="miter"/><defs/></g><g id="obj_11" transform="matrix(1,0,0,1,678.996,231.081)" opacity="1" display="inline"><path d="M 96.004 46.897 C 96.004 21 74.506 0 48.002 0 C 21.489 0 0 21 0 46.897 C 0 54.88 2.061 62.399 5.668 68.981 L 5.648 68.981 L 5.688 69.019 C 5.856 69.342 6.054 69.648 6.249 69.964 L 48.002 140.634 L 89.758 69.977 C 89.948 69.647 90.135 69.342 90.317 69.018 L 90.344 68.98 L 90.335 68.98 C 93.946 62.399 96.004 54.88 96.004 46.897 Z M 48.002 80.967 C 28.736 80.967 13.114 65.718 13.114 46.897 C 13.114 28.077 28.736 12.83 48.002 12.83 C 67.263 12.83 82.867 28.077 82.867 46.897 C 82.867 65.718 67.263 80.967 48.002 80.967 Z " fill-opacity="1" fill="#3fe3bb" stroke="none" stroke-width="1" stroke-linecap="square" stroke-linejoin="miter"/><defs/></g><g id="obj_12" transform="matrix(1,0,0,1,698.188,247.427)" opacity="1" display="inline"><path d="M 20.49 18.148 L 29.672 0 L 38.82 18.148 L 59.321 21.068 L 44.488 35.194 L 47.976 55.141 L 29.654 45.716 L 11.299 55.116 L 14.819 35.184 L 0 21.042 L 20.49 18.148 Z " fill-opacity="1" fill="#3fe3bb" stroke="none" stroke-width="1" stroke-linecap="square" stroke-linejoin="miter"/><defs/></g></g></svg>