<?xml version="1.0" encoding="UTF-8" standalone="no"?>
<!-- Created with Inkscape (http://www.inkscape.org/) -->
<svg
   xmlns:svg="http://www.w3.org/2000/svg"
   xmlns="http://www.w3.org/2000/svg"
   version="1.0"
   width="499.76126"
   height="91.636253"
   id="svg2759">
  <defs
     id="defs2761">
    <clipPath
       id="clipPath2855">
      <path
         d="M 0,595.276 L 841.89,595.276 L 841.89,0 L 0,0 L 0,595.276 z"
         id="path2857" />
    </clipPath>
  </defs>
  <g
     transform="translate(-127.26223,-383.68692)"
     id="layer1">
    <g
       transform="matrix(1.25,0,0,-1.25,-154.35527,849.47317)"
       id="g2851">
      <g
         clip-path="url(#clipPath2855)"
         id="g2853">
        <path
           d="M 360.917,371.159 L 339.441,371.159 L 339.441,343.188 L 317.082,343.188 L 317.082,371.159 L 295.603,371.159 L 295.603,300.79 L 317.082,300.79 L 317.082,328.468 L 339.441,328.468 L 339.441,300.79 L 360.917,300.79 L 360.917,371.159 z M 435.641,314.926 L 435.641,371.159 L 414.164,371.159 L 414.164,300.79 L 453.001,300.79 L 456.234,314.926 L 435.641,314.926 z M 398.279,371.159 L 376.803,371.159 L 376.803,300.789 L 398.279,300.789 L 398.279,371.159 z M 485.361,371.159 L 463.887,371.159 L 463.887,300.789 L 485.361,300.789 L 485.361,371.159 z M 591.264,353.2 C 591.264,357.026 595.094,358.795 601.265,358.795 C 608.033,358.795 615.394,357.322 620.391,355.253 L 618.629,370.568 C 613.034,371.746 608.033,372.629 598.916,372.629 C 581.556,372.629 569.793,365.781 569.793,351.428 C 569.793,326.703 603.336,331.704 603.336,320.222 C 603.336,315.809 600.094,313.457 592.146,313.457 C 585.097,313.457 574.203,315.809 567.732,319.048 L 570.093,302.85 C 576.559,300.494 585.385,299.32 592.449,299.32 C 610.39,299.32 625.103,305.21 625.103,322.877 C 625.103,346.423 591.264,342.011 591.264,353.2 M 530.674,317.574 C 550.664,317.574 563.319,327.881 563.319,345.836 C 563.319,365.564 549.789,372.629 527.724,372.629 C 519.192,372.629 508.89,372.042 501.537,371.159 L 501.537,300.79 L 523.022,300.79 L 523.022,317.574 L 530.674,317.574 z M 542.137,345.545 C 542.137,336.416 537.728,330.233 526.545,330.233 L 523.022,330.233 L 523.022,359.308 C 524.268,359.378 525.442,359.378 526.545,359.378 C 537.133,359.378 542.137,354.375 542.137,345.545 M 254.419,317.574 C 274.425,317.574 287.074,327.881 287.074,345.836 C 287.074,365.564 273.541,372.629 251.478,372.629 C 242.945,372.629 232.647,372.042 225.294,371.159 L 225.294,300.79 L 246.767,300.79 L 246.767,317.574 L 254.419,317.574 z M 265.896,345.545 C 265.896,336.416 261.481,330.233 250.301,330.233 L 246.767,330.233 L 246.767,359.308 C 248.023,359.378 249.196,359.378 250.301,359.378 C 260.887,359.378 265.896,354.375 265.896,345.545"
           id="path2859"
           style="fill:#1476c6;fill-opacity:1;fill-rule:nonzero;stroke:none" />
      </g>
    </g>
  </g>
</svg>
