<svg version="1.1" width="900" height="650" viewBox="0 0 900 650" xmlns="http://www.w3.org/2000/svg" xmlns:xlink="http://www.w3.org/1999/xlink"><g xmlns="http://www.w3.org/2000/svg" id="obj_1" transform="translate(0,0)"><rect x="0" y="0" width="900" height="650" fill="#343d40" stroke="none" stroke-width="1" fill-opacity="1"/><defs/></g><g xmlns="http://www.w3.org/2000/svg" id="obj_2"><g id="obj_3" transform="matrix(1,0,0,1,125,265.408)" opacity="1" display="inline"><path d="M 220.493 2.389 L 185.577 2.389 L 185.577 47.864 L 149.226 47.864 L 149.226 2.389 L 114.306 2.389 L 114.306 116.795 L 149.226 116.795 L 149.226 71.796 L 185.577 71.796 L 185.577 116.795 L 220.493 116.795 L 220.493 2.389 Z M 341.977 93.813 L 341.977 2.389 L 307.059 2.389 L 307.059 116.795 L 370.201 116.795 L 375.456 93.813 L 341.977 93.813 Z M 281.234 2.389 L 246.319 2.389 L 246.319 116.796 L 281.234 116.796 L 281.234 2.389 Z M 422.811 2.389 L 387.898 2.389 L 387.898 116.796 L 422.811 116.796 L 422.811 2.389 Z M 594.986 31.587 C 594.986 25.367 601.212 22.49 611.245 22.49 C 622.248 22.49 634.215 24.886 642.339 28.25 L 639.475 3.351 C 630.378 1.436 622.248 0 607.426 0 C 579.203 0 560.078 11.133 560.078 34.468 C 560.078 74.666 614.612 66.535 614.612 85.203 C 614.612 92.377 609.341 96.201 596.419 96.201 C 584.959 96.201 567.247 92.377 556.727 87.111 L 560.566 113.446 C 571.078 117.276 585.428 119.184 596.912 119.184 C 626.08 119.184 650 109.609 650 80.886 C 650 42.605 594.986 49.778 594.986 31.587 Z M 496.479 89.508 C 528.978 89.508 549.552 72.75 549.552 43.559 C 549.552 11.486 527.556 0 491.684 0 C 477.813 0 461.063 0.955 449.109 2.389 L 449.109 116.795 L 484.039 116.795 L 484.039 89.508 L 496.479 89.508 Z M 515.116 44.033 C 515.116 58.874 507.947 68.927 489.767 68.927 L 484.039 68.927 L 484.039 21.657 C 486.065 21.544 487.973 21.544 489.767 21.544 C 506.981 21.544 515.116 29.676 515.116 44.033 Z M 47.35 89.508 C 79.876 89.508 100.44 72.75 100.44 43.559 C 100.44 11.486 78.439 0 42.569 0 C 28.696 0 11.954 0.955 0 2.389 L 0 116.795 L 34.909 116.795 L 34.909 89.508 L 47.35 89.508 Z M 66.01 44.033 C 66.01 58.874 58.832 68.927 40.656 68.927 L 34.909 68.927 L 34.909 21.657 C 36.951 21.544 38.858 21.544 40.656 21.544 C 57.865 21.544 66.01 29.676 66.01 44.033 Z " fill-opacity="1" fill="#f97a63" stroke="none" stroke-width="1" stroke-linecap="square" stroke-linejoin="miter"/><defs/></g></g></svg>