<svg version="1.1" width="900" height="650" viewBox="0 0 900 650" xmlns="http://www.w3.org/2000/svg" xmlns:xlink="http://www.w3.org/1999/xlink"><g xmlns="http://www.w3.org/2000/svg" id="obj_1" transform="translate(0,0)"><rect x="0" y="0" width="900" height="650" fill="#f97a63" stroke="none" stroke-width="1" fill-opacity="1"/><defs/></g><g xmlns="http://www.w3.org/2000/svg" id="obj_2"><g id="obj_3" transform="matrix(1,0,0,1,314.646,275.2)" opacity="1" display="inline"><path d="M 30.884 51.802 C 36.676 52.818 41.45 56.071 45.105 61.555 C 49.066 56.071 51.2 48.045 51.2 37.683 C 51.2 17.063 42.464 5.484 28.956 5.484 C 15.443 5.484 6.707 17.063 6.707 37.683 C 6.707 58.303 15.443 69.882 28.956 69.882 C 33.32 69.882 37.283 68.66 40.535 66.229 C 37.385 60.842 35.047 59.018 30.884 58.407 L 30.884 51.802 L 30.884 51.802 Z M 60.544 80.45 C 54.145 80.45 47.237 78.108 43.378 71.206 C 39.313 73.947 34.44 75.367 28.956 75.367 C 10.568 75.367 0 59.321 0 37.683 C 0 16.047 10.568 0 28.956 0 C 47.339 0 57.902 16.047 57.902 37.683 C 57.902 50.08 54.453 60.641 47.948 67.343 C 51.099 72.827 54.145 74.35 60.544 74.35 L 60.544 80.45 Z " fill-opacity="1" fill="#343d40" stroke="none" stroke-width="1" stroke-linecap="square" stroke-linejoin="miter" fill-rule="nonzero"/><defs/></g><g id="obj_4" transform="matrix(1,0,0,1,377.727,296.731)" opacity="1" display="inline"><path d="M 39.82 0 L 39.82 52.821 L 33.725 52.821 L 33.725 44.494 C 28.037 50.384 23.363 53.838 15.645 53.838 C 4.676 53.838 0 47.541 0 36.061 L 0 0 L 6.096 0 L 6.096 35.452 C 6.096 44.187 8.737 48.964 16.863 48.964 C 23.363 48.964 27.023 45.001 33.725 38.904 L 33.725 0 L 39.82 0 Z " fill-opacity="1" fill="#343d40" stroke="none" stroke-width="1" stroke-linecap="square" stroke-linejoin="miter" fill-rule="nonzero"/><defs/></g><g id="obj_5" transform="matrix(1,0,0,1,422.42,295.715)" opacity="1" display="inline"><path d="M 36.774 22.752 C 35.558 11.887 30.785 4.98 21.539 4.876 C 10.772 4.774 6.202 15.747 6.096 22.752 L 36.774 22.752 Z M 6.096 27.63 C 6.096 39.616 11.075 49.98 23.064 49.98 C 29.866 49.98 33.218 47.642 38.505 39.311 L 43.48 41.952 C 37.794 51.298 32.614 54.854 22.557 54.854 C 8.741 54.854 0 46.017 0 27.426 C 0 11.071 8.332 0 21.745 0 C 36.063 0 42.869 11.276 42.869 27.63 L 6.096 27.63 Z " fill-opacity="1" fill="#343d40" stroke="none" stroke-width="1" stroke-linecap="square" stroke-linejoin="miter" fill-rule="nonzero"/><defs/></g><g id="obj_6" transform="matrix(1,0,0,1,470.162,295.715)" opacity="1" display="inline"><path d="M 36.774 22.752 C 35.558 11.887 30.78 4.98 21.537 4.876 C 10.772 4.774 6.202 15.747 6.096 22.752 L 36.774 22.752 L 36.774 22.752 Z M 6.096 27.63 C 6.096 39.616 11.075 49.98 23.062 49.98 C 29.866 49.98 33.218 47.642 38.501 39.311 L 43.476 41.952 C 37.79 51.298 32.611 54.854 22.553 54.854 C 8.741 54.854 0 46.017 0 27.426 C 0 11.071 8.332 0 21.745 0 C 36.063 0 42.874 11.276 42.874 27.63 L 6.096 27.63 Z " fill-opacity="1" fill="#343d40" stroke="none" stroke-width="1" stroke-linecap="square" stroke-linejoin="miter" fill-rule="nonzero"/><defs/></g><g id="obj_7" transform="matrix(1,0,0,1,518.52,295.715)" opacity="1" display="inline"><path d="M 0 53.837 L 0 1.016 L 6.091 1.016 L 6.091 9.348 C 11.782 3.456 16.456 0 24.177 0 C 35.146 0 39.818 6.297 39.818 17.777 L 39.818 53.837 L 33.722 53.837 L 33.722 18.388 C 33.722 9.656 31.085 4.876 22.954 4.876 C 16.456 4.876 12.793 8.834 6.091 14.934 L 6.091 53.837 L 0 53.837 Z " fill-opacity="1" fill="#343d40" stroke="none" stroke-width="1" stroke-linecap="square" stroke-linejoin="miter" fill-rule="nonzero"/><defs/></g><g id="obj_8" transform="matrix(1,0,0,1,589.824,276.214)" opacity="1" display="inline"><path d="M 0 73.336 L 0 0 L 11.783 0 L 32.002 62.167 L 32.199 62.167 L 52.516 0 L 64.301 0 L 64.301 73.336 L 57.597 73.336 L 57.597 5.484 L 57.397 5.484 L 35.35 73.336 L 28.953 73.336 L 6.91 5.484 L 6.702 5.484 L 6.702 73.336 L 0 73.336 L 0 73.336 Z " fill-opacity="1" fill="#343d40" stroke="none" stroke-width="1" stroke-linecap="square" stroke-linejoin="miter" fill-rule="nonzero"/><defs/></g><g id="obj_9" transform="matrix(1,0,0,1,658.797,295.715)" opacity="1" display="inline"><path d="M 33.525 23.972 C 9.348 29.255 6.095 34.234 6.095 40.934 C 6.095 46.728 10.056 49.98 15.541 49.98 C 21.231 49.98 28.237 46.622 33.525 41.244 L 33.525 23.972 L 33.525 23.972 Z M 34.541 53.837 L 33.726 47.439 C 27.425 52.414 22.651 54.852 14.525 54.852 C 6.295 54.852 0 49.777 0 41.04 C 0 26.618 11.784 23.972 33.824 19.099 L 33.824 15.441 C 33.824 8.433 30.781 4.878 21.736 4.878 C 15.439 4.878 10.258 8.332 6.401 14.427 L 2.336 11.987 C 6.91 3.454 13.409 0 21.94 0 C 33.928 0 39.616 4.878 39.616 16.559 L 39.616 44.191 C 39.616 46.828 39.818 50.286 40.429 53.837 L 34.541 53.837 Z " fill-opacity="1" fill="#343d40" stroke="none" stroke-width="1" stroke-linecap="square" stroke-linejoin="miter" fill-rule="nonzero"/><defs/></g><g id="obj_10" transform="matrix(1,0,0,1,704.71,295.715)" opacity="1" display="inline"><path d="M 0 53.837 L 0 1.016 L 6.096 1.016 L 6.096 11.071 L 6.3 11.071 C 9.143 4.57 14.833 0 21.536 0 L 24.279 0 L 24.279 5.894 L 21.536 5.894 C 14.833 5.894 6.096 13.814 6.096 23.972 L 6.096 53.837 L 0 53.837 Z " fill-opacity="1" fill="#343d40" stroke="none" stroke-width="1" stroke-linecap="square" stroke-linejoin="miter" fill-rule="nonzero"/><defs/></g><g id="obj_11" transform="matrix(1,0,0,1,732.337,296.731)" opacity="1" display="inline"><path d="M 21.235 42.969 L 21.437 42.969 L 36.162 0 L 42.663 0 L 22.958 56.579 C 19.402 66.943 15.647 71.508 6.095 71.508 C 3.454 71.508 1.829 71.309 0.405 70.906 L 0.405 65.927 C 2.236 66.13 4.167 66.639 6.501 66.639 C 10.767 66.639 15.443 62.882 18.388 52.009 L 0 0 L 6.706 0 L 21.235 42.969 Z " fill-opacity="1" fill="#343d40" stroke="none" stroke-width="1" stroke-linecap="square" stroke-linejoin="miter" fill-rule="nonzero"/><defs/></g><g id="obj_12" transform="matrix(1,0,0,1,317.166,371.75)" opacity="1" display="inline"><path d="M 5.985 0 L 5.985 21.898 C 5.985 24.892 7.285 26.457 10.191 26.457 C 13.099 26.457 14.444 24.892 14.444 21.898 L 14.444 0 L 20.427 0 L 20.427 21.943 C 20.427 28.836 16.351 31.744 10.191 31.744 C 4.037 31.744 0 28.836 0 21.943 L 0 0 L 5.985 0 Z " fill-opacity="1" fill="#343d40" stroke="none" stroke-width="1" stroke-linecap="square" stroke-linejoin="miter" fill-rule="nonzero"/><defs/></g><g id="obj_13" transform="matrix(1,0,0,1,341.062,379.037)" opacity="1" display="inline"><path d="M 0 24.023 L 0 0.433 L 5.289 0.433 L 5.289 3.12 C 7.285 1.391 9.151 0 11.406 0 C 14.743 0 16.481 1.69 16.481 6.069 L 16.481 24.023 L 11.014 24.023 L 11.014 6.678 C 11.014 5.116 10.494 4.073 9.023 4.073 C 7.892 4.073 6.635 5.159 5.463 6.201 L 5.463 24.023 L 0 24.023 Z " fill-opacity="1" fill="#343d40" stroke="none" stroke-width="1" stroke-linecap="square" stroke-linejoin="miter" fill-rule="nonzero"/><defs/></g><g id="obj_14" transform="matrix(1,0,0,1,360.835,370.445)" opacity="1" display="inline"><path d="M 5.462 32.613 L 0 32.613 L 0 9.025 L 5.462 9.025 L 5.462 32.613 Z M 0 0 L 5.462 0 L 5.462 4.945 L 0 4.945 L 0 0 Z " fill-opacity="1" fill="#343d40" stroke="none" stroke-width="1" stroke-linecap="square" stroke-linejoin="miter" fill-rule="nonzero"/><defs/></g><g id="obj_15" transform="matrix(1,0,0,1,368.815,379.468)" opacity="1" display="inline"><path d="M 9.064 15.179 L 9.151 15.179 L 12.748 0 L 18.214 0 L 11.794 23.592 L 6.42 23.592 L 0 0 L 5.463 0 L 9.064 15.179 Z " fill-opacity="1" fill="#343d40" stroke="none" stroke-width="1" stroke-linecap="square" stroke-linejoin="miter" fill-rule="nonzero"/><defs/></g><g id="obj_16" transform="matrix(1,0,0,1,387.55,379.039)" opacity="1" display="inline"><path d="M 11.882 9.104 L 11.882 7.805 C 11.882 5.725 10.884 4.421 8.671 4.421 C 6.461 4.421 5.462 5.725 5.462 7.805 L 5.462 9.104 L 11.882 9.104 Z M 5.462 13.529 L 5.462 16.651 C 5.462 18.994 6.849 20.032 8.671 20.032 C 10.97 20.032 11.882 18.563 11.882 16.736 L 17.345 16.736 C 17.085 21.597 14.177 24.453 8.671 24.453 C 3.471 24.453 0 21.25 0 16.086 L 0 8.367 C 0 3.207 3.471 0 8.671 0 C 13.746 0 17.345 3.207 17.345 8.024 L 17.345 13.529 L 5.462 13.529 Z " fill-opacity="1" fill="#343d40" stroke="none" stroke-width="1" stroke-linecap="square" stroke-linejoin="miter" fill-rule="nonzero"/><defs/></g><g id="obj_17" transform="matrix(1,0,0,1,407.931,379.037)" opacity="1" display="inline"><path d="M 0 24.023 L 0 0.433 L 5.337 0.433 L 5.337 3.551 L 5.421 3.551 C 6.678 1.213 8.327 0 11.057 0 L 11.057 5.896 C 10.145 5.636 9.107 5.289 8.154 5.289 C 6.375 5.289 5.462 6.635 5.462 7.891 L 5.462 24.023 L 0 24.023 Z " fill-opacity="1" fill="#343d40" stroke="none" stroke-width="1" stroke-linecap="square" stroke-linejoin="miter" fill-rule="nonzero"/><defs/></g><g id="obj_18" transform="matrix(1,0,0,1,420.288,379.037)" opacity="1" display="inline"><path d="M 12.059 7.631 C 11.322 5.46 9.933 4.422 8.288 4.422 C 7.027 4.422 6.074 5.332 6.074 6.548 C 6.074 10.188 16.743 10.277 16.743 17.3 C 16.743 21.987 13.448 24.455 8.893 24.455 C 5.597 24.455 2.648 23.633 0 17.731 L 4.906 16.39 C 5.378 18.604 6.724 20.03 8.893 20.03 C 10.542 20.03 11.537 19.254 11.537 17.95 C 11.537 13.445 0.869 14.526 0.869 6.587 C 0.869 2.123 4.47 0 8.33 0 C 12.405 0 15.225 2.338 16.57 5.898 L 12.059 7.631 Z " fill-opacity="1" fill="#343d40" stroke="none" stroke-width="1" stroke-linecap="square" stroke-linejoin="miter" fill-rule="nonzero"/><defs/></g><g id="obj_19" transform="matrix(1,0,0,1,439.285,370.445)" opacity="1" display="inline"><path d="M 5.463 32.613 L 0 32.613 L 0 9.025 L 5.463 9.025 L 5.463 32.613 Z M 0 0 L 5.463 0 L 5.463 4.945 L 0 4.945 L 0 0 Z " fill-opacity="1" fill="#343d40" stroke="none" stroke-width="1" stroke-linecap="square" stroke-linejoin="miter" fill-rule="nonzero"/><defs/></g><g id="obj_20" transform="matrix(1,0,0,1,447.439,374.096)" opacity="1" display="inline"><path d="M 0 10.837 L 0 6.412 L 2.164 6.412 L 2.164 0 L 7.634 0 L 7.634 6.412 L 11.144 6.412 L 11.144 10.837 L 7.634 10.837 L 7.634 22.893 C 7.634 24.063 8.63 24.629 10.102 24.629 C 10.494 24.629 10.84 24.629 11.187 24.581 L 11.187 29.179 C 10.145 29.357 9.107 29.396 8.065 29.396 C 4.509 29.396 2.164 28.096 2.164 24.715 L 2.164 10.837 L 0 10.837 Z " fill-opacity="1" fill="#343d40" stroke="none" stroke-width="1" stroke-linecap="square" stroke-linejoin="miter" fill-rule="nonzero"/><defs/></g><g id="obj_21" transform="matrix(1,0,0,1,460.574,379.468)" opacity="1" display="inline"><path d="M 0.912 27.062 C 1.435 27.146 1.957 27.146 2.516 27.146 C 4.902 27.146 6.464 25.068 6.464 24.024 C 6.464 22.637 6.028 21.033 5.467 19.038 L 0 0 L 5.556 0 L 9.24 15.612 L 9.324 15.612 L 12.752 0 L 18.303 0 L 12.017 23.504 C 10.323 29.878 8.113 31.92 2.648 31.92 C 2.126 31.92 1.523 31.874 0.912 31.831 L 0.912 27.062 Z " fill-opacity="1" fill="#343d40" stroke="none" stroke-width="1" stroke-linecap="square" stroke-linejoin="miter" fill-rule="nonzero"/><defs/></g><g id="obj_22" transform="matrix(1,0,0,1,489.679,379.039)" opacity="1" display="inline"><path d="M 5.459 16.909 C 5.459 18.732 6.759 19.689 8.671 19.689 C 10.578 19.689 11.878 18.732 11.878 16.909 L 11.878 7.543 C 11.878 5.725 10.578 4.767 8.671 4.767 C 6.759 4.767 5.459 5.725 5.459 7.543 L 5.459 16.909 Z M 0 8.932 C 0 2.687 3.205 0 8.671 0 C 14.138 0 17.344 2.687 17.344 8.932 L 17.344 15.522 C 17.344 21.77 14.138 24.453 8.671 24.453 C 3.205 24.453 0 21.77 0 15.522 L 0 8.932 Z " fill-opacity="1" fill="#343d40" stroke="none" stroke-width="1" stroke-linecap="square" stroke-linejoin="miter" fill-rule="nonzero"/><defs/></g><g id="obj_23" transform="matrix(1,0,0,1,508.669,371.316)" opacity="1" display="inline"><path d="M 11.361 4.772 L 9.797 4.772 C 8.501 4.772 7.937 5.597 7.937 6.763 L 7.937 9.192 L 11.19 9.192 L 11.19 13.617 L 7.937 13.617 L 7.937 31.744 L 2.473 31.744 L 2.473 13.617 L 0 13.617 L 0 9.192 L 2.473 9.192 L 2.473 6.938 C 2.473 1.476 4.772 0 8.759 0 C 9.539 0 10.451 0.128 11.361 0.262 L 11.361 4.772 Z " fill-opacity="1" fill="#343d40" stroke="none" stroke-width="1" stroke-linecap="square" stroke-linejoin="miter" fill-rule="nonzero"/><defs/></g><g id="obj_24" transform="matrix(1,0,0,1,532.955,371.75)" opacity="1" display="inline"><path d="M 0 31.31 L 0 0 L 5.986 0 L 5.986 26.021 L 15.61 26.021 L 15.61 31.31 L 0 31.31 Z " fill-opacity="1" fill="#343d40" stroke="none" stroke-width="1" stroke-linecap="square" stroke-linejoin="miter" fill-rule="nonzero"/><defs/></g><g id="obj_25" transform="matrix(1,0,0,1,550.604,379.039)" opacity="1" display="inline"><path d="M 5.463 16.909 C 5.463 18.732 6.767 19.689 8.674 19.689 C 10.581 19.689 11.883 18.732 11.883 16.909 L 11.883 7.543 C 11.883 5.725 10.581 4.767 8.674 4.767 C 6.767 4.767 5.463 5.725 5.463 7.543 L 5.463 16.909 Z M 0 8.932 C 0 2.687 3.207 0 8.674 0 C 14.137 0 17.346 2.687 17.346 8.932 L 17.346 15.522 C 17.346 21.77 14.137 24.453 8.674 24.453 C 3.207 24.453 0 21.77 0 15.522 L 0 8.932 Z " fill-opacity="1" fill="#343d40" stroke="none" stroke-width="1" stroke-linecap="square" stroke-linejoin="miter" fill-rule="nonzero"/><defs/></g><g id="obj_26" transform="matrix(1,0,0,1,571.421,379.037)" opacity="1" display="inline"><path d="M 0 24.023 L 0 0.433 L 5.285 0.433 L 5.285 3.12 C 7.281 1.391 9.146 0 11.4 0 C 14.743 0 16.481 1.69 16.481 6.069 L 16.481 24.023 L 11.008 24.023 L 11.008 6.678 C 11.008 5.116 10.492 4.073 9.016 4.073 C 7.89 4.073 6.635 5.159 5.458 6.201 L 5.458 24.023 L 0 24.023 Z " fill-opacity="1" fill="#343d40" stroke="none" stroke-width="1" stroke-linecap="square" stroke-linejoin="miter" fill-rule="nonzero"/><defs/></g><g id="obj_27" transform="matrix(1,0,0,1,590.931,371.75)" opacity="1" display="inline"><path d="M 11.45 13.053 C 10.366 11.887 9.365 11.36 8.154 11.36 C 6.683 11.36 5.465 12.318 5.465 17.001 L 5.465 22.032 C 5.465 26.71 6.683 27.668 8.154 27.668 C 9.365 27.668 10.366 27.146 11.45 25.976 L 11.45 13.053 Z M 11.885 31.308 L 11.885 28.448 L 11.797 28.448 C 10.843 29.921 8.416 31.739 5.987 31.739 C 1.736 31.739 0 28.448 0 22.374 L 0 16.654 C 0 10.582 1.736 7.289 5.987 7.289 C 7.459 7.289 8.847 7.98 11.45 9.887 L 11.45 0 L 16.912 0 L 16.912 31.308 L 11.885 31.308 Z " fill-opacity="1" fill="#343d40" stroke="none" stroke-width="1" stroke-linecap="square" stroke-linejoin="miter" fill-rule="nonzero"/><defs/></g><g id="obj_28" transform="matrix(1,0,0,1,610.444,379.039)" opacity="1" display="inline"><path d="M 5.471 16.909 C 5.471 18.732 6.771 19.689 8.68 19.689 C 10.585 19.689 11.885 18.732 11.885 16.909 L 11.885 7.543 C 11.885 5.725 10.585 4.767 8.68 4.767 C 6.771 4.767 5.471 5.725 5.471 7.543 L 5.471 16.909 Z M 0 8.932 C 0 2.687 3.211 0 8.68 0 C 14.14 0 17.35 2.687 17.35 8.932 L 17.35 15.522 C 17.35 21.77 14.14 24.453 8.68 24.453 C 3.211 24.453 0 21.77 0 15.522 L 0 8.932 Z " fill-opacity="1" fill="#343d40" stroke="none" stroke-width="1" stroke-linecap="square" stroke-linejoin="miter" fill-rule="nonzero"/><defs/></g><g id="obj_29" transform="matrix(1,0,0,1,631.263,379.037)" opacity="1" display="inline"><path d="M 0 24.023 L 0 0.433 L 5.289 0.433 L 5.289 3.12 C 7.285 1.391 9.152 0 11.406 0 C 14.743 0 16.476 1.69 16.476 6.069 L 16.476 24.023 L 11.014 24.023 L 11.014 6.678 C 11.014 5.116 10.494 4.073 9.018 4.073 C 7.891 4.073 6.635 5.159 5.462 6.201 L 5.462 24.023 L 0 24.023 Z " fill-opacity="1" fill="#343d40" stroke="none" stroke-width="1" stroke-linecap="square" stroke-linejoin="miter" fill-rule="nonzero"/><defs/></g><g id="obj_30" transform="matrix(1,0,0,1,165.375,276.328)" opacity="1" display="inline"><path d="M 37.553 70.685 C 22.301 70.685 9.937 55.443 9.937 36.64 C 9.937 17.838 22.301 2.596 37.553 2.596 C 52.81 2.596 65.176 17.838 65.176 36.64 C 65.176 55.443 52.81 70.685 37.553 70.685 Z M 37.243 0 C 16.676 0 0 16.481 0 36.804 C 0 57.131 16.676 73.617 37.243 73.617 C 57.813 73.617 74.485 57.131 74.485 36.804 C 74.485 16.481 57.813 0 37.243 0 Z " fill-opacity="1" fill="#343d40" stroke="none" stroke-width="1" stroke-linecap="square" stroke-linejoin="miter" fill-rule="nonzero"/><defs/></g><g id="obj_31" transform="matrix(1,0,0,1,165.375,276.328)" opacity="1" display="inline"><path d="M 37.553 70.685 C 22.301 70.685 9.937 55.443 9.937 36.64 C 9.937 17.838 22.301 2.596 37.553 2.596 C 52.81 2.596 65.176 17.838 65.176 36.64 C 65.176 55.443 52.81 70.685 37.553 70.685 Z M 37.243 0 C 16.676 0 0 16.481 0 36.804 C 0 57.131 16.676 73.617 37.243 73.617 C 57.813 73.617 74.485 57.131 74.485 36.804 C 74.485 16.481 57.813 0 37.243 0 Z " fill-opacity="1" fill="#343d40" stroke-opacity="1" stroke="none" stroke-width="0.169" stroke-linecap="square" stroke-linejoin="miter"/><defs/></g><g id="obj_32" transform="matrix(1,0,0,1,125,278.976)" opacity="1" display="inline"><path d="M 0 0 C 0 0 26.949 19.046 14.68 42.105 C 14.68 42.105 32.817 17.319 38.895 52.191 C 38.895 52.191 33.686 44.287 23.625 46.261 C 14.836 47.987 13.744 54.798 13.744 54.798 L 0 0 Z " fill-opacity="1" fill="#343d40" stroke="none" stroke-width="1" stroke-linecap="square" stroke-linejoin="miter" fill-rule="nonzero"/><defs/></g><g id="obj_33" transform="matrix(1,0,0,1,125,278.976)" opacity="1" display="inline"><path d="M 0 0 C 0 0 26.949 19.046 14.68 42.105 C 14.68 42.105 32.817 17.319 38.895 52.191 C 38.895 52.191 33.686 44.287 23.625 46.261 C 14.836 47.987 13.744 54.798 13.744 54.798 L 0 0 Z " fill-opacity="1" fill="#343d40" stroke-opacity="1" stroke="none" stroke-width="0.169" stroke-linecap="square" stroke-linejoin="miter"/><defs/></g><g id="obj_34" transform="matrix(1,0,0,1,240.343,278.976)" opacity="1" display="inline"><path d="M 38.895 0 C 38.895 0 11.946 19.046 24.214 42.105 C 24.214 42.105 6.08 17.319 0 52.191 C 0 52.191 5.209 44.287 15.27 46.261 C 24.058 47.987 25.151 54.798 25.151 54.798 L 38.895 0 Z " fill-opacity="1" fill="#343d40" stroke="none" stroke-width="1" stroke-linecap="square" stroke-linejoin="miter" fill-rule="nonzero"/><defs/></g><g id="obj_35" transform="matrix(1,0,0,1,240.343,278.976)" opacity="1" display="inline"><path d="M 38.895 0 C 38.895 0 11.946 19.046 24.214 42.105 C 24.214 42.105 6.08 17.319 0 52.191 C 0 52.191 5.209 44.287 15.27 46.261 C 24.058 47.987 25.151 54.798 25.151 54.798 L 38.895 0 Z " fill-opacity="1" fill="#343d40" stroke-opacity="1" stroke="none" stroke-width="0.169" stroke-linecap="square" stroke-linejoin="miter"/><defs/></g><g id="obj_36" transform="matrix(1,0,0,1,141.098,329.249)" opacity="1" display="inline"><path d="M 26.7961 22.655 C 30.7441 21.26 34.465 20.048 39.302 18.202 C 37.416 17.125 34.927 15.041 33.128 13.509 C 28.3691 15.214 23.9681 16.924 21.2161 17.862 C 18.4282 18.813 9.3112 20.928 6.0002 11.983 C 3.5783 5.424 8.2392 1.246 12.7422 1.246 C 14.4252 1.246 16.1392 1.885 16.1302 2.109 C 13.8182 2.109 11.9512 3.977 11.9512 6.282 C 11.9512 8.581 13.8182 10.447 16.1202 10.447 C 18.4232 10.447 20.2911 8.581 20.2911 6.282 C 20.2911 4.475 19.3701 3.094 17.9962 2.044 C 16.1462 0.763 13.5612 0 11.1102 0 C 5.6272 0 0.8493 4.824 0.0743 10.41 C -0.8127 16.744 6.1342 29.9509 26.7961 22.655 Z " fill-opacity="1" fill="#343d40" stroke="none" stroke-width="1" stroke-linecap="square" stroke-linejoin="miter" fill-rule="nonzero"/><defs/></g><g id="obj_37" transform="matrix(1,0,0,1,141.098,329.249)" opacity="1" display="inline"><path d="M 26.7961 22.655 C 30.7441 21.26 34.465 20.048 39.302 18.202 C 37.416 17.125 34.927 15.041 33.128 13.509 C 28.3691 15.214 23.9681 16.924 21.2161 17.862 C 18.4282 18.813 9.3112 20.928 6.0002 11.983 C 3.5783 5.424 8.2392 1.246 12.7422 1.246 C 14.4252 1.246 16.1392 1.885 16.1302 2.109 C 13.8182 2.109 11.9512 3.977 11.9512 6.282 C 11.9512 8.581 13.8182 10.447 16.1202 10.447 C 18.4232 10.447 20.2911 8.581 20.2911 6.282 C 20.2911 4.475 19.3701 3.094 17.9962 2.044 C 16.1462 0.763 13.5612 0 11.1102 0 C 5.6272 0 0.8493 4.824 0.0743 10.41 C -0.8127 16.744 6.1342 29.9509 26.7961 22.655 L 26.7961 22.655 L 26.7961 22.655 Z " fill-opacity="1" fill="#343d40" stroke-opacity="1" stroke="none" stroke-width="0.169" stroke-linecap="square" stroke-linejoin="miter"/><defs/></g><g id="obj_38" transform="matrix(1,0,0,1,146.242,357.227)" opacity="1" display="inline"><path d="M 0.1321 5.2721 C -0.6979 2.373 2.4701 0 7.1651 0 L 106.4648 0 C 111.1628 0 114.3288 2.373 113.4988 5.2721 C 112.6688 8.1701 108.1588 10.2611 103.4748 9.9131 L 65.2249 7.0761 C 60.538 6.7231 52.871 6.7231 48.184 7.0761 L 10.1541 9.9131 C 5.4711 10.2611 0.9571 8.1701 0.1321 5.2721 Z " fill-opacity="1" fill="#343d40" stroke="none" stroke-width="1" stroke-linecap="square" stroke-linejoin="miter" fill-rule="nonzero"/><defs/></g><g id="obj_39" transform="matrix(1,0,0,1,146.242,357.227)" opacity="1" display="inline"><path d="M 0.1321 5.2721 C -0.6979 2.373 2.4701 0 7.1651 0 L 106.4648 0 C 111.1628 0 114.3288 2.373 113.4988 5.2721 C 112.6688 8.1701 108.1588 10.2611 103.4748 9.9131 L 65.2249 7.0761 C 60.538 6.7231 52.871 6.7231 48.184 7.0761 L 10.1541 9.9131 C 5.4711 10.2611 0.9571 8.1701 0.1321 5.2721 L 0.1321 5.2721 Z " fill-opacity="1" fill="#343d40" stroke-opacity="1" stroke="none" stroke-width="0.169" stroke-linecap="square" stroke-linejoin="miter"/><defs/></g><g id="obj_40" transform="matrix(1,0,0,1,185.912,238.612)" opacity="1" display="inline"><path d="M 22.739 34.113 C 18.752 28.33 21.114 24.713 23.816 24.731 C 28.1059 24.757 29.6769 27.175 29.6529 31.051 C 31.9519 29.716 34.0889 26.206 34.1099 22.913 C 34.1299 19.621 31.5639 16.553 28.2749 16.531 C 24.253 16.505 22.188 17.766 20.338 19.881 C 20.648 19.222 20.977 18.579 21.298 17.957 C 21.993 16.601 22.806 14.949 22.797 13.483 C 22.789 11.721 21.954 9.786 20.765 7.678 C 19.638 5.63 18.03 2.581 16.958 0 C 15.915 2.596 14.347 5.658 13.246 7.723 C 12.08 9.847 11.272 11.792 11.278 13.554 C 11.289 15.019 12.124 16.659 12.836 18.011 C 13.174 18.635 13.515 19.29 13.835 19.959 C 11.972 17.795 9.9091 16.505 5.8331 16.531 C 2.5461 16.553 -0.0209 19.621 0.0001 22.913 C 0.0181 26.206 2.1561 29.716 4.4551 31.051 C 4.4311 27.175 6.0021 24.757 10.2901 24.731 C 12.995 24.713 15.328 27.994 11.116 34.113 C 15.718 32.991 18.303 33.16 22.739 34.113 Z " fill-opacity="1" fill="#343d40" stroke="none" stroke-width="1" stroke-linecap="square" stroke-linejoin="miter" fill-rule="nonzero"/><defs/></g><g id="obj_41" transform="matrix(1,0,0,1,185.912,238.612)" opacity="1" display="inline"><path d="M 22.739 34.113 C 18.752 28.33 21.114 24.713 23.816 24.731 C 28.1059 24.757 29.6769 27.175 29.6529 31.051 C 31.9519 29.716 34.0889 26.206 34.1099 22.913 C 34.1299 19.621 31.5639 16.553 28.2749 16.531 C 24.253 16.505 22.188 17.766 20.338 19.881 C 20.648 19.222 20.977 18.579 21.298 17.957 C 21.993 16.601 22.806 14.949 22.797 13.483 C 22.789 11.721 21.954 9.786 20.765 7.678 C 19.638 5.63 18.03 2.581 16.958 0 C 15.915 2.596 14.347 5.658 13.246 7.723 C 12.08 9.847 11.272 11.792 11.278 13.554 C 11.289 15.019 12.124 16.659 12.836 18.011 C 13.174 18.635 13.515 19.29 13.835 19.959 C 11.972 17.795 9.9091 16.505 5.8331 16.531 C 2.5461 16.553 -0.0209 19.621 0.0001 22.913 C 0.0181 26.206 2.1561 29.716 4.4551 31.051 C 4.4311 27.175 6.0021 24.757 10.2901 24.731 C 12.995 24.713 15.328 27.994 11.116 34.113 C 15.718 32.991 18.303 33.16 22.739 34.113 L 22.739 34.113 L 22.739 34.113 Z " fill-opacity="1" fill="#343d40" stroke-opacity="1" stroke="none" stroke-width="0.169" stroke-linecap="square" stroke-linejoin="miter"/><defs/></g><g id="obj_42" transform="matrix(1,0,0,1,184.558,329.787)" opacity="1" display="inline"><path d="M 78.6455 10.4109 C 77.8655 4.8269 73.0944 0 67.6104 0 C 65.1594 0 62.5744 0.76 60.7244 2.041 C 59.3504 3.094 58.4273 4.4739 58.4273 6.2789 C 58.4273 8.5819 60.2974 10.4499 62.5984 10.4499 C 64.9014 10.4499 66.7654 8.5819 66.7654 6.2789 C 66.7654 3.974 64.9014 2.108 62.5854 2.108 C 62.5764 1.887 64.2974 1.243 65.9804 1.243 C 70.4764 1.243 75.1424 5.4209 72.7134 11.9799 C 69.4064 20.9287 60.2924 18.8118 57.5013 17.8628 C 54.7523 16.9218 42.3253 12.1829 37.5642 10.4739 L 37.3062 10.6929 C 25.9412 6.5629 24.0951 5.9019 18.6741 4.7789 C 1.211 1.154 0 12.7448 0 12.7448 C 0 13.1478 1.48 7.6219 13.0441 8.8079 C 17.7921 9.2889 20.6061 10.5839 31.5212 15.0888 L 31.3952 15.1708 C 36.2362 17.0148 47.9743 21.2617 51.9263 22.6527 C 72.5834 29.9466 79.5275 16.7418 78.6455 10.4109 Z " fill-opacity="1" fill="#343d40" stroke="none" stroke-width="1" stroke-linecap="square" stroke-linejoin="miter" fill-rule="nonzero"/><defs/></g><g id="obj_43" transform="matrix(1,0,0,1,184.558,329.787)" opacity="1" display="inline"><path d="M 78.6455 10.4109 C 77.8655 4.8269 73.0944 0 67.6104 0 C 65.1594 0 62.5744 0.76 60.7244 2.041 C 59.3504 3.094 58.4273 4.4739 58.4273 6.2789 C 58.4273 8.5819 60.2974 10.4499 62.5984 10.4499 C 64.9014 10.4499 66.7654 8.5819 66.7654 6.2789 C 66.7654 3.974 64.9014 2.108 62.5854 2.108 C 62.5764 1.887 64.2974 1.243 65.9804 1.243 C 70.4764 1.243 75.1424 5.4209 72.7134 11.9799 C 69.4064 20.9287 60.2924 18.8118 57.5013 17.8628 C 54.7523 16.9218 42.3253 12.1829 37.5642 10.4739 L 37.3062 10.6929 C 25.9412 6.5629 24.0951 5.9019 18.6741 4.7789 C 1.211 1.154 0 12.7448 0 12.7448 C 0 13.1478 1.48 7.6219 13.0441 8.8079 C 17.7921 9.2889 20.6061 10.5839 31.5212 15.0888 L 31.3952 15.1708 C 36.2362 17.0148 47.9743 21.2617 51.9263 22.6527 C 72.5834 29.9466 79.5275 16.7418 78.6455 10.4109 L 78.6455 10.4109 Z " fill-opacity="1" fill="#343d40" stroke-opacity="1" stroke="none" stroke-width="0.169" stroke-linecap="square" stroke-linejoin="miter"/><defs/></g></g></svg>