<?xml version="1.0" encoding="UTF-8" standalone="no"?>
<svg width="385px" height="74px" viewBox="0 0 385 74" version="1.1" xmlns="http://www.w3.org/2000/svg" xmlns:xlink="http://www.w3.org/1999/xlink" xmlns:sketch="http://www.bohemiancoding.com/sketch/ns">
    <!-- Generator: Sketch 3.2.2 (9983) - http://www.bohemiancoding.com/sketch -->
    <title>Untitled</title>
    <desc>Created with Sketch.</desc>
    <defs></defs>
    <g id="Page-1" stroke="none" stroke-width="1" fill="none" fill-rule="evenodd" sketch:type="MSPage">
        <g id="senzari-logo" sketch:type="MSLayerGroup" fill="#FFFFFF">
            <path d="M96.8511233,30.717498 C99.9715762,30.717498 100.325196,31.9399248 100.502005,32.6103494 L107.802814,32.2025555 C107.596377,31.0966413 107.096531,28.2124782 103.210539,26.9890964 C101.915528,26.5526519 99.4124751,26.2031142 96.8807508,26.2031142 C94.5841357,26.2031142 90.40378,26.4361393 88.078493,28.8236916 C87.0482179,29.8732595 86.4002341,31.3000608 86.4002341,32.8433745 C86.4002341,36.6004267 89.7271244,37.7655522 90.5222903,38.0568336 C91.3165006,38.3185093 92.0829947,38.5228838 92.9068325,38.6966976 C93.9361519,38.9297227 98.6182649,39.7453105 99.5309855,40.0375469 C100.119714,40.2409664 100.913924,40.6487603 100.913924,41.6095113 C100.913924,42.3085866 100.384451,42.8911494 99.8836492,43.1824307 C99.1477384,43.5902247 98.0582081,43.6771316 97.2926697,43.6771316 C94.3490265,43.6771316 92.9651319,42.6581243 92.7003952,41.3182299 L85.369959,41.5226044 C85.4875136,42.4547048 85.7522503,44.3475562 87.5480638,45.9204756 C89.9928168,48.0750028 94.1425892,48.2497716 96.232767,48.2497716 C101.826645,48.2497716 105.330345,47.1142518 107.066903,44.522325 C107.685259,43.6188753 108.156434,42.3668429 108.156434,40.9982979 C108.156434,39.1340972 107.273341,37.0960826 104.506507,36.0761203 C103.622458,35.7265826 102.739365,35.5222081 101.826645,35.3483943 C100.413123,35.0275073 98.9709287,34.7648766 97.5583622,34.4449446 C96.4095768,34.2119195 94.3193989,33.7458693 93.8185973,33.1060053 C93.6723709,32.9312364 93.5834881,32.6686057 93.5834881,32.3773243 C93.5834881,30.8626612 95.8801033,30.717498 96.8511233,30.717498 L96.8511233,30.717498 Z M133.882728,27.0769584 L133.882728,47.6385582 L156.079519,47.6385582 L156.079519,42.9780563 L141.302047,42.9780563 L141.302047,39.7166599 L154.69658,39.7166599 L154.69658,35.057113 L141.330719,35.057113 L141.330719,31.7078547 L155.78611,31.7078547 L155.78611,27.0769584 L133.882728,27.0769584 L133.882728,27.0769584 Z M178.312626,47.6385582 L185.67269,47.6385582 L185.67269,43.2702927 C185.644018,40.6487603 185.644018,39.8618231 185.555136,36.3091454 C186.497484,37.4742708 186.851103,37.9116704 187.91005,39.1340972 L195.534851,47.6385582 L201.717457,47.6385582 L201.717457,27.0769584 L194.387021,27.0769584 L194.387021,31.7365053 C194.387021,34.5032008 194.416649,35.4935575 194.534203,38.3185093 C193.062382,36.4256579 192.68009,35.9596077 190.854649,34.0085 L184.465605,27.0769584 L178.312626,27.0769584 L178.312626,47.6385582 L178.312626,47.6385582 Z M228.546663,31.7078547 L241.20624,31.7078547 L227.427505,43.2989433 L227.427505,47.6385582 L251.098028,47.6385582 L251.098028,42.7746368 L237.908977,42.7746368 L251.127656,31.4748296 L251.127656,27.0769584 L228.546663,27.0769584 L228.546663,31.7078547 L228.546663,31.7078547 Z M274.915733,47.6385582 L283.070007,47.6385582 L284.189165,44.2893 L292.137958,44.2893 L293.25616,47.6385582 L301.352134,47.6385582 L292.343439,27.0769584 L283.865173,27.0769584 L274.915733,47.6385582 L274.915733,47.6385582 Z M290.577253,39.7453105 L285.748914,39.7453105 L288.134412,32.7851182 L290.577253,39.7453105 L290.577253,39.7453105 Z M325.55691,47.6385582 L333.004901,47.6385582 L333.004901,40.1531045 L336.979775,40.1531045 L341.248057,47.6385582 L349.491214,47.6385582 L344.280583,39.4253785 C345.164632,39.1923534 346.577198,38.9010721 347.754656,37.5029215 C348.608121,36.4839142 349.079295,35.057113 349.079295,33.6007061 C349.079295,31.5330859 348.137903,29.5237219 346.635498,28.387247 C344.898939,27.1352146 342.661579,27.105609 340.836138,27.0769584 L325.55691,27.0769584 L325.55691,47.6385582 L325.55691,47.6385582 Z M333.004901,31.7365053 L339.187507,31.7365053 C339.746608,31.7365053 340.513102,31.7947616 341.101831,32.3190681 C341.484122,32.6686057 341.630349,33.1642615 341.630349,33.6303117 C341.630349,35.4649069 339.746608,35.4935575 338.598778,35.4935575 L333.004901,35.4935575 L333.004901,31.7365053 L333.004901,31.7365053 Z M377.099338,47.6385582 L384.546373,47.6385582 L384.546373,27.0779134 L377.099338,27.0779134 L377.099338,47.6385582 Z" id="Fill-1" sketch:type="MSShapeGroup"></path>
            <path d="M36.2072943,4.30735017 C38.6195526,4.30735017 40.5749727,6.10087942 40.5749727,8.31461785 C40.5749727,10.5274013 38.6195526,12.3209305 36.2072943,12.3209305 C33.7959917,12.3209305 31.8405716,10.5274013 31.8405716,8.31461785 C31.8405716,6.10087942 33.7959917,4.30735017 36.2072943,4.30735017 L36.2072943,4.30735017 Z M6.83585162,4.76480518 C10.4485047,4.76480518 13.3768562,7.45223398 13.3768562,10.7671115 C13.3768562,14.081034 10.4485047,16.7684628 6.83585162,16.7684628 C3.22319858,16.7684628 0.294847012,14.081034 0.294847012,10.7671115 C0.294847012,7.45223398 3.22319858,4.76480518 6.83585162,4.76480518 L6.83585162,4.76480518 Z M28.2164498,11.1873207 C31.0549629,11.1873207 33.355401,13.2979169 33.355401,15.9022589 C33.355401,18.5056458 31.0549629,20.616242 28.2164498,20.616242 C25.3779367,20.616242 23.0774987,18.5056458 23.0774987,15.9022589 C23.0774987,13.2979169 25.3779367,11.1873207 28.2164498,11.1873207 L28.2164498,11.1873207 Z M46.2778036,9.18941699 C48.6910176,9.18941699 50.6464377,10.9839013 50.6464377,13.1976397 C50.6464377,15.4104231 48.6910176,17.2039523 46.2778036,17.2039523 C43.8655453,17.2039523 41.9101252,15.4104231 41.9101252,13.1976397 C41.9101252,10.9839013 43.8655453,9.18941699 46.2778036,9.18941699 L46.2778036,9.18941699 Z M18.3781825,17.8361762 C21.2166956,17.8361762 23.5171337,19.9477274 23.5171337,22.5520694 C23.5171337,25.1554563 21.2166956,27.2670075 18.3781825,27.2670075 C15.5396694,27.2670075 13.2392314,25.1554563 13.2392314,22.5520694 C13.2392314,19.9477274 15.5396694,17.8361762 18.3781825,17.8361762 L18.3781825,17.8361762 Z M6.83585162,27.8256947 C10.4485047,27.8256947 13.3768562,30.5121685 13.3768562,33.827046 C13.3768562,37.1409686 10.4485047,39.8283973 6.83585162,39.8283973 C3.22319858,39.8283973 0.294847012,37.1409686 0.294847012,33.827046 C0.294847012,30.5121685 3.22319858,27.8256947 6.83585162,27.8256947 L6.83585162,27.8256947 Z M28.2164498,28.569656 C31.0549629,28.569656 33.355401,30.6802522 33.355401,33.2836392 C33.355401,35.8879811 31.0549629,37.9985773 28.2164498,37.9985773 C25.3779367,37.9985773 23.0774987,35.8879811 23.0774987,33.2836392 C23.0774987,30.6802522 25.3779367,28.569656 28.2164498,28.569656 L28.2164498,28.569656 Z M18.3781825,35.2204215 C21.2166956,35.2204215 23.5171337,37.3310177 23.5171337,39.9353597 C23.5171337,42.5397017 21.2166956,44.6502978 18.3781825,44.6502978 C15.5396694,44.6502978 13.2392314,42.5397017 13.2392314,39.9353597 C13.2392314,37.3310177 15.5396694,35.2204215 18.3781825,35.2204215 L18.3781825,35.2204215 Z M36.3238931,36.3263357 C38.7361514,36.3263357 40.6915716,38.12082 40.6915716,40.3336034 C40.6915716,42.5473418 38.7361514,44.3408711 36.3238931,44.3408711 C33.9116349,44.3408711 31.9562147,42.5473418 31.9562147,40.3336034 C31.9562147,38.12082 33.9116349,36.3263357 36.3238931,36.3263357 L36.3238931,36.3263357 Z M28.2164498,45.9519913 C31.0549629,45.9519913 33.355401,48.0625875 33.355401,50.6659745 C33.355401,53.2703164 31.0549629,55.3809126 28.2164498,55.3809126 C25.3779367,55.3809126 23.0774987,53.2703164 23.0774987,50.6659745 C23.0774987,48.0625875 25.3779367,45.9519913 28.2164498,45.9519913 L28.2164498,45.9519913 Z M46.2778036,43.9569527 C48.6910176,43.9569527 50.6464377,45.7514369 50.6464377,47.9642204 C50.6464377,50.1779588 48.6910176,51.971488 46.2778036,51.971488 C43.8655453,51.971488 41.9101252,50.1779588 41.9101252,47.9642204 C41.9101252,45.7514369 43.8655453,43.9569527 46.2778036,43.9569527 L46.2778036,43.9569527 Z M18.3781825,52.6046669 C21.2166956,52.6046669 23.5171337,54.7152631 23.5171337,57.31865 C23.5171337,59.922992 21.2166956,62.0335882 18.3781825,62.0335882 C15.5396694,62.0335882 13.2392314,59.922992 13.2392314,57.31865 C13.2392314,54.7152631 15.5396694,52.6046669 18.3781825,52.6046669 L18.3781825,52.6046669 Z M36.3238931,53.708671 C38.7361514,53.708671 40.6915716,55.5031553 40.6915716,57.7159387 C40.6915716,59.9296772 38.7361514,61.7241614 36.3238931,61.7241614 C33.9116349,61.7241614 31.9562147,59.9296772 31.9562147,57.7159387 C31.9562147,55.5031553 33.9116349,53.708671 36.3238931,53.708671 L36.3238931,53.708671 Z M51.6862701,53.9120905 C53.7363074,53.9120905 55.3992746,55.4372589 55.3992746,57.31865 C55.3992746,59.2000412 53.7363074,60.7252096 51.6862701,60.7252096 C49.6352772,60.7252096 47.9732656,59.2000412 47.9732656,57.31865 C47.9732656,55.4372589 49.6352772,53.9120905 51.6862701,53.9120905 L51.6862701,53.9120905 Z M6.83585162,57.2833143 C10.4485047,57.2833143 13.3768562,59.970743 13.3768562,63.2846656 C13.3768562,66.5995431 10.4485047,69.2869719 6.83585162,69.2869719 C3.22319858,69.2869719 0.294847012,66.5995431 0.294847012,63.2846656 C0.294847012,59.970743 3.22319858,57.2833143 6.83585162,57.2833143 L6.83585162,57.2833143 Z M28.6876239,64.5710787 C31.5251813,64.5710787 33.8265751,66.6816749 33.8265751,69.2860169 C33.8265751,71.8894038 31.5251813,74 28.6876239,74 C25.8491108,74 23.5486727,71.8894038 23.5486727,69.2860169 C23.5486727,66.6816749 25.8491108,64.5710787 28.6876239,64.5710787 L28.6876239,64.5710787 Z M46.2778036,61.340243 C48.6910176,61.340243 50.6464377,63.1347273 50.6464377,65.3484657 C50.6464377,67.5612491 48.6910176,69.3557334 46.2778036,69.3557334 C43.8655453,69.3557334 41.9101252,67.5612491 41.9101252,65.3484657 C41.9101252,63.1347273 43.8655453,61.340243 46.2778036,61.340243 L46.2778036,61.340243 Z M18.3781825,0.452885842 C21.2166956,0.452885842 23.5171337,2.56348202 23.5171337,5.167824 C23.5171337,7.77216598 21.2166956,9.88276216 18.3781825,9.88276216 C15.5396694,9.88276216 13.2392314,7.77216598 13.2392314,5.167824 C13.2392314,2.56348202 15.5396694,0.452885842 18.3781825,0.452885842 L18.3781825,0.452885842 Z" id="Fill-3" sketch:type="MSShapeGroup"></path>
        </g>
    </g>
</svg>