<svg version="1.1" width="900" height="650" viewBox="0 0 900 650" xmlns="http://www.w3.org/2000/svg" xmlns:xlink="http://www.w3.org/1999/xlink"><g xmlns="http://www.w3.org/2000/svg" id="obj_1" transform="translate(0,0)"><rect x="0" y="0" width="900" height="650" fill="#f97a63" stroke="none" stroke-width="1" fill-opacity="1"/><defs/></g><g xmlns="http://www.w3.org/2000/svg" id="obj_2"><g id="obj_3" transform="matrix(1,0,0,1,268.913,306.353)" opacity="1" display="inline"><path d="M 19.421 7.636 C 24.701 7.636 25.298 9.705 25.597 10.839 L 37.948 10.15 C 37.598 8.279 36.753 3.399 30.179 1.33 C 27.989 0.592 23.754 0 19.472 0 C 15.586 0 8.515 0.394 4.581 4.433 C 2.839 6.208 1.742 8.622 1.742 11.232 C 1.742 17.588 7.37 19.56 8.715 20.052 C 10.06 20.496 11.355 20.84 12.749 21.135 C 14.49 21.529 22.41 22.908 23.954 23.403 C 24.951 23.747 26.294 24.437 26.294 26.063 C 26.294 27.245 25.397 28.23 24.551 28.722 C 23.307 29.412 21.463 29.56 20.169 29.56 C 15.189 29.56 12.848 27.835 12.399 25.569 L 0 25.916 C 0.2 27.492 0.646 30.694 3.685 33.354 C 7.82 36.998 14.84 37.295 18.375 37.295 C 27.839 37.295 33.764 35.373 36.703 30.989 C 37.748 29.461 38.545 27.343 38.545 25.027 C 38.545 21.874 37.051 18.427 32.372 16.702 C 30.875 16.111 29.381 15.764 27.839 15.469 C 25.447 14.928 23.007 14.483 20.617 13.942 C 18.675 13.548 15.138 12.76 14.293 11.677 C 14.044 11.381 13.893 10.938 13.893 10.444 C 13.893 7.883 17.778 7.636 19.421 7.636 Z M 82.064 1.479 L 82.064 36.261 L 119.613 36.261 L 119.613 28.377 L 94.615 28.377 L 94.615 22.861 L 117.274 22.861 L 117.274 14.977 L 94.663 14.977 L 94.663 9.312 L 119.115 9.312 L 119.115 1.479 L 82.064 1.479 Z M 157.223 36.261 L 169.672 36.261 L 169.672 28.871 C 169.624 24.437 169.624 23.106 169.472 17.095 C 171.067 19.066 171.665 19.807 173.457 21.874 L 186.355 36.261 L 196.812 36.261 L 196.812 1.479 L 184.413 1.479 L 184.413 9.361 C 184.413 14.04 184.464 15.716 184.662 20.496 C 182.172 17.293 181.525 16.505 178.439 13.205 L 167.631 1.479 L 157.223 1.479 L 157.223 36.261 Z M 242.198 9.312 L 263.612 9.312 L 240.306 28.92 L 240.306 36.261 L 280.346 36.261 L 280.346 28.033 L 258.035 28.033 L 280.396 8.918 L 280.396 1.479 L 242.198 1.479 L 242.198 9.312 Z M 320.636 36.261 L 334.429 36.261 L 336.323 30.594 L 349.768 30.594 L 351.66 36.261 L 365.355 36.261 L 350.116 1.479 L 335.774 1.479 L 320.636 36.261 Z M 347.128 22.908 L 338.961 22.908 L 342.995 11.134 L 347.128 22.908 Z M 406.3 36.261 L 418.899 36.261 L 418.899 23.598 L 425.623 23.598 L 432.843 36.261 L 446.787 36.261 L 437.974 22.367 C 439.469 21.972 441.857 21.48 443.85 19.115 C 445.293 17.392 446.09 14.977 446.09 12.515 C 446.09 9.017 444.498 5.618 441.956 3.694 C 439.02 1.577 435.235 1.528 432.146 1.479 L 406.3 1.479 L 406.3 36.261 Z M 418.899 9.361 L 429.359 9.361 C 430.304 9.361 431.599 9.46 432.596 10.346 C 433.242 10.938 433.489 11.776 433.489 12.564 C 433.489 15.668 430.304 15.716 428.362 15.716 L 418.899 15.716 L 418.899 9.361 Z M 493.489 36.261 L 506.086 36.261 L 506.086 1.481 L 493.489 1.481 L 493.489 36.261 Z " fill-opacity="1" fill="#343d40" stroke="none" stroke-width="1" stroke-linecap="square" stroke-linejoin="miter" fill-rule="nozero"/><defs/></g><g id="obj_4" transform="matrix(1,0,0,1,124.999,262.794)" opacity="1" display="inline"><path d="M 60.749 6.52 C 64.831 6.52 68.139 9.554 68.139 13.3 C 68.139 17.041 64.831 20.077 60.749 20.077 C 56.671 20.077 53.364 17.041 53.364 13.3 C 53.364 9.554 56.671 6.52 60.749 6.52 Z M 11.065 7.295 C 17.177 7.295 22.13 11.84 22.13 17.448 C 22.13 23.054 17.177 27.599 11.065 27.599 C 4.954 27.599 0 23.054 0 17.448 C 0 11.84 4.954 7.295 11.065 7.295 Z M 47.232 18.158 C 52.035 18.158 55.925 21.729 55.925 26.134 C 55.925 30.539 52.035 34.108 47.232 34.108 C 42.432 34.108 38.539 30.539 38.539 26.134 C 38.539 21.729 42.432 18.158 47.232 18.158 Z M 77.786 14.778 C 81.868 14.778 85.175 17.815 85.175 21.56 C 85.175 25.302 81.868 28.336 77.786 28.336 C 73.706 28.336 70.397 25.302 70.397 21.56 C 70.397 17.815 73.706 14.778 77.786 14.778 Z M 30.59 29.405 C 35.393 29.405 39.284 32.978 39.284 37.383 C 39.284 41.787 35.393 45.359 30.59 45.359 C 25.79 45.359 21.897 41.787 21.897 37.383 C 21.897 32.978 25.79 29.405 30.59 29.405 Z M 11.065 46.304 C 17.177 46.304 22.13 50.849 22.13 56.456 C 22.13 62.062 17.177 66.607 11.065 66.607 C 4.954 66.607 0 62.062 0 56.456 C 0 50.849 4.954 46.304 11.065 46.304 Z M 47.232 47.563 C 52.035 47.563 55.925 51.133 55.925 55.537 C 55.925 59.942 52.035 63.513 47.232 63.513 C 42.432 63.513 38.539 59.942 38.539 55.537 C 38.539 51.133 42.432 47.563 47.232 47.563 Z M 30.59 58.812 C 35.393 58.812 39.284 62.383 39.284 66.789 C 39.284 71.195 35.393 74.764 30.59 74.764 C 25.79 74.764 21.897 71.195 21.897 66.789 C 21.897 62.383 25.79 58.812 30.59 58.812 Z M 60.947 60.683 C 65.027 60.683 68.337 63.72 68.337 67.464 C 68.337 71.207 65.027 74.241 60.947 74.241 C 56.867 74.241 53.559 71.207 53.559 67.464 C 53.559 63.72 56.867 60.683 60.947 60.683 Z M 47.232 76.967 C 52.035 76.967 55.925 80.538 55.925 84.941 C 55.925 89.345 52.035 92.917 47.232 92.917 C 42.432 92.917 38.539 89.345 38.539 84.941 C 38.539 80.538 42.432 76.967 47.232 76.967 Z M 77.786 73.592 C 81.868 73.592 85.175 76.627 85.175 80.37 C 85.175 84.116 81.868 87.148 77.786 87.148 C 73.706 87.148 70.397 84.116 70.397 80.37 C 70.397 76.627 73.706 73.592 77.786 73.592 Z M 30.59 88.221 C 35.393 88.221 39.284 91.79 39.284 96.195 C 39.284 100.6 35.393 104.171 30.59 104.171 C 25.79 104.171 21.897 100.6 21.897 96.195 C 21.897 91.79 25.79 88.221 30.59 88.221 Z M 60.947 90.088 C 65.027 90.088 68.337 93.123 68.337 96.867 C 68.337 100.612 65.027 103.646 60.947 103.646 C 56.867 103.646 53.559 100.612 53.559 96.867 C 53.559 93.123 56.867 90.088 60.947 90.088 Z M 86.934 90.432 C 90.401 90.432 93.215 93.011 93.215 96.195 C 93.215 99.377 90.401 101.956 86.934 101.956 C 83.464 101.956 80.653 99.377 80.653 96.195 C 80.653 93.011 83.464 90.432 86.934 90.432 Z M 11.065 96.134 C 17.177 96.134 22.13 100.681 22.13 106.287 C 22.13 111.895 17.177 116.44 11.065 116.44 C 4.954 116.44 0 111.895 0 106.287 C 0 100.681 4.954 96.134 11.065 96.134 Z M 48.031 108.463 C 52.83 108.463 56.724 112.033 56.724 116.438 C 56.724 120.842 52.83 124.413 48.031 124.413 C 43.228 124.413 39.338 120.842 39.338 116.438 C 39.338 112.033 43.228 108.463 48.031 108.463 Z M 77.786 102.997 C 81.868 102.997 85.175 106.034 85.175 109.777 C 85.175 113.521 81.868 116.557 77.786 116.557 C 73.706 116.557 70.397 113.521 70.397 109.777 C 70.397 106.034 73.706 102.997 77.786 102.997 Z M 30.59 0 C 35.393 0 39.284 3.57 39.284 7.977 C 39.284 12.381 35.393 15.952 30.59 15.952 C 25.79 15.952 21.897 12.381 21.897 7.977 C 21.897 3.57 25.79 0 30.59 0 Z " fill-opacity="1" fill="#343d40" stroke="none" stroke-width="1" stroke-linecap="square" stroke-linejoin="miter" fill-rule="nozero"/><defs/></g></g></svg>