<svg version="1.1" width="900" height="650" viewBox="0 0 900 650" xmlns="https://www.w3.org/2000/svg" xmlns:xlink="https://www.w3.org/1999/xlink"><g xmlns="https://www.w3.org/2000/svg" id="obj_1" transform="translate(0,0)"><rect x="0" y="0" width="900" height="650" fill="#3fe3bb" stroke="none" stroke-width="1" fill-opacity="1"/><defs/></g><g xmlns="https://www.w3.org/2000/svg" id="obj_2"><g id="obj_3" transform="matrix(1,0,0,1,125,139.734)" opacity="1" display="inline"><path d="M 7.362 168.831 C 6.006 168.831 4.929 169.881 4.755 171.376 L 0 207.481 L 4.755 242.965 C 4.929 244.46 6.006 245.502 7.362 245.502 C 8.676 245.502 9.746 244.467 9.956 242.978 L 9.956 242.978 L 9.956 242.971 C 9.956 242.971 9.956 242.971 9.956 242.978 L 15.589 207.481 L 9.956 171.369 C 9.752 169.881 8.669 168.831 7.362 168.831 Z M 34.093 149.105 C 33.869 147.553 32.758 146.483 31.388 146.483 C 30.011 146.483 28.872 147.588 28.682 149.105 C 28.682 149.119 22.294 207.481 22.294 207.481 L 28.682 264.565 C 28.864 266.095 30.004 267.2 31.388 267.2 C 32.751 267.2 33.863 266.123 34.086 264.579 L 41.356 207.481 L 34.093 149.105 Z M 134.782 95.258 C 132.161 95.258 129.994 97.404 129.868 100.13 L 124.779 207.53 L 129.868 276.937 C 130 279.65 132.161 281.789 134.782 281.789 C 137.39 281.789 139.55 279.643 139.703 276.923 L 139.703 276.945 L 145.456 207.53 L 139.703 100.13 C 139.55 97.404 137.39 95.258 134.782 95.258 Z M 82.669 132.586 C 80.656 132.586 79.013 134.195 78.852 136.341 L 73.12 207.502 L 78.852 276.35 C 79.006 278.482 80.656 280.091 82.669 280.091 C 84.661 280.091 86.304 278.482 86.479 276.35 L 92.994 207.502 L 86.479 136.327 C 86.304 134.195 84.661 132.586 82.669 132.586 Z M 187.742 281.782 C 190.992 281.782 193.634 279.16 193.767 275.805 L 198.758 207.566 L 193.774 64.577 C 193.641 61.222 190.999 58.601 187.748 58.601 C 184.469 58.601 181.82 61.229 181.715 64.584 C 181.715 64.591 177.291 207.558 177.291 207.558 L 181.715 275.826 C 181.82 279.154 184.469 281.782 187.742 281.782 Z M 296.161 282.104 C 300.635 282.104 304.326 278.419 304.41 273.89 L 304.41 273.939 L 304.41 273.89 L 307.891 207.607 L 304.41 42.467 C 304.334 37.944 300.635 34.254 296.161 34.254 C 291.681 34.254 287.983 37.937 287.913 42.474 L 284.802 207.552 C 284.802 207.656 287.913 273.931 287.913 273.931 C 287.983 278.419 291.688 282.104 296.161 282.104 Z M 241.539 281.845 C 245.433 281.845 248.571 278.72 248.676 274.736 L 248.676 274.785 L 252.912 207.58 L 248.669 63.556 C 248.565 59.572 245.425 56.455 241.532 56.455 C 237.61 56.455 234.472 59.572 234.388 63.556 L 230.62 207.586 L 234.395 274.777 C 234.478 278.72 237.618 281.845 241.539 281.845 Z M 108.625 281.216 C 110.938 281.216 112.812 279.364 112.986 276.923 L 119.124 207.502 L 112.986 141.464 C 112.818 139.025 110.945 137.186 108.625 137.186 C 106.275 137.186 104.402 139.039 104.256 141.492 L 98.851 207.502 L 104.256 276.917 C 104.409 279.364 106.275 281.216 108.625 281.216 Z M 56.924 277.413 C 58.616 277.413 59.985 276.077 60.181 274.232 L 67.074 207.489 L 60.188 138.227 C 59.985 136.375 58.616 135.041 56.924 135.041 C 55.21 135.041 53.841 136.382 53.666 138.227 C 53.666 138.235 47.598 207.489 47.598 207.489 L 53.666 274.218 C 53.833 276.071 55.204 277.413 56.924 277.413 Z M 268.745 61.159 C 264.517 61.159 261.126 64.521 261.042 68.828 L 257.603 207.593 L 261.042 274.365 C 261.126 278.615 264.509 281.978 268.745 281.978 C 272.968 281.978 276.337 278.623 276.435 274.316 L 276.435 274.373 L 280.294 207.6 L 276.435 68.813 C 276.337 64.521 272.968 61.159 268.745 61.159 Z M 161.164 281.922 C 164.085 281.922 166.498 279.538 166.637 276.497 L 172.006 207.552 L 166.637 75.587 C 166.49 72.539 164.085 70.162 161.164 70.162 C 158.214 70.162 155.809 72.546 155.684 75.587 C 155.684 75.594 150.93 207.552 150.93 207.552 L 155.69 276.525 C 155.809 279.538 158.214 281.922 161.164 281.922 Z M 221.113 275.413 L 221.113 275.379 L 225.727 207.572 L 221.113 59.768 C 221.001 56.098 218.108 53.218 214.535 53.218 C 210.942 53.218 208.048 56.091 207.95 59.768 L 203.854 207.566 L 207.957 275.407 C 208.055 279.041 210.949 281.914 214.535 281.914 C 218.114 281.914 220.995 279.041 221.113 275.386 L 221.113 275.413 Z M 570.058 122.374 C 559.105 122.374 548.654 124.59 539.133 128.581 C 532.771 56.524 472.346 0 398.64 0 C 380.606 0 363.025 3.551 347.499 9.556 C 341.466 11.891 339.858 14.296 339.802 18.958 L 339.802 272.709 C 339.866 277.602 343.662 281.677 348.435 282.16 C 348.639 282.181 568.625 282.292 570.052 282.292 C 614.202 282.292 650 246.495 650 202.337 C 650 158.179 614.21 122.374 570.058 122.374 Z M 323.46 18.734 C 318.657 18.734 314.714 22.677 314.645 27.521 L 311.037 207.628 L 314.651 272.995 C 314.714 277.769 318.657 281.705 323.46 281.705 C 328.247 281.705 332.19 277.769 332.26 272.925 L 332.26 273.002 L 336.182 207.628 L 332.26 27.508 C 332.19 22.677 328.247 18.734 323.46 18.734 Z M 64.564 333.119 C 55.106 330.896 52.547 329.708 52.547 325.961 C 52.547 323.318 54.679 320.586 61.069 320.586 C 66.528 320.586 70.793 322.801 74.623 326.723 L 83.228 318.377 C 77.601 312.498 70.785 309.003 61.502 309.003 C 49.73 309.003 40.189 315.65 40.189 326.478 C 40.189 338.236 47.864 341.731 58.853 344.283 C 70.1 346.834 72.149 348.547 72.149 352.384 C 72.149 356.9 68.814 358.865 61.754 358.865 C 56.042 358.865 50.674 356.908 46.494 352.035 L 37.889 359.711 C 42.405 366.359 51.107 370.532 61.069 370.532 C 77.356 370.532 84.514 362.863 84.514 351.532 C 84.514 338.572 74.029 335.335 64.564 333.119 Z M 119.467 309.003 C 103.192 309.003 93.567 321.614 93.567 339.767 C 93.567 357.921 103.192 370.525 119.467 370.525 C 135.74 370.525 145.379 357.921 145.379 339.767 C 145.379 321.614 135.74 309.003 119.467 309.003 Z M 119.467 358.69 C 109.84 358.69 105.828 350.421 105.828 339.774 C 105.828 329.121 109.84 320.851 119.467 320.851 C 129.106 320.851 133.105 329.121 133.105 339.774 C 133.105 350.421 129.106 358.69 119.467 358.69 Z M 193.536 343.437 C 193.536 352.979 188.838 358.865 181.261 358.865 C 173.677 358.865 169.077 352.811 169.077 343.27 L 169.077 309.932 L 157.138 309.932 L 157.138 343.437 C 157.138 360.815 166.861 370.532 181.261 370.532 C 196.43 370.532 205.469 360.557 205.469 343.27 L 205.469 309.932 L 193.536 309.932 L 193.536 343.437 Z M 256.939 335.167 C 256.939 338.495 257.107 345.988 257.107 348.204 C 256.338 346.666 254.38 343.688 252.934 341.465 L 231.787 309.926 L 220.372 309.926 L 220.372 369.595 L 232.137 369.595 L 232.137 343.339 C 232.137 340.011 231.969 332.518 231.969 330.302 C 232.731 331.833 234.702 334.818 236.142 337.041 L 258.05 369.595 L 268.704 369.595 L 268.704 309.926 L 256.939 309.926 L 256.939 335.167 Z M 302.705 309.932 L 284.041 309.932 L 284.041 369.602 L 301.845 369.602 C 317.189 369.602 332.365 360.731 332.365 339.767 C 332.365 317.943 319.747 309.932 302.705 309.932 Z M 301.845 358.012 L 295.973 358.012 L 295.973 321.529 L 302.278 321.529 C 314.896 321.529 320.097 327.576 320.097 339.767 C 320.097 350.679 314.379 358.012 301.845 358.012 Z M 369.267 320.844 C 374.636 320.844 378.046 323.235 380.179 327.324 L 391.259 322.214 C 387.505 314.462 380.683 309.003 369.435 309.003 C 353.853 309.003 342.934 321.614 342.934 339.767 C 342.934 358.599 353.412 370.525 369.009 370.525 C 379.837 370.525 386.994 365.499 391.084 357.061 L 381.032 351.091 C 377.879 356.383 374.719 358.683 369.351 358.683 C 360.404 358.683 355.203 350.498 355.203 339.767 C 355.195 328.694 360.327 320.844 369.267 320.844 Z M 413.523 309.932 L 401.59 309.932 L 401.59 369.602 L 437.451 369.602 L 437.451 357.831 L 413.523 357.831 L 413.523 309.932 Z M 468.887 309.003 C 452.599 309.003 442.973 321.614 442.973 339.767 C 442.973 357.921 452.599 370.525 468.887 370.525 C 485.16 370.525 494.793 357.921 494.793 339.767 C 494.793 321.614 485.16 309.003 468.887 309.003 Z M 468.887 358.69 C 459.247 358.69 455.249 350.421 455.249 339.774 C 455.249 329.121 459.247 320.851 468.887 320.851 C 478.506 320.851 482.511 329.121 482.511 339.774 C 482.511 350.421 478.506 358.69 468.887 358.69 Z M 542.943 343.437 C 542.943 352.979 538.266 358.865 530.681 358.865 C 523.083 358.865 518.49 352.811 518.49 343.27 L 518.49 309.932 L 506.558 309.932 L 506.558 343.437 C 506.558 360.815 516.274 370.532 530.681 370.532 C 545.85 370.532 554.882 360.557 554.882 343.27 L 554.882 309.932 L 542.943 309.932 L 542.943 343.437 Z M 588.457 309.932 L 569.8 309.932 L 569.8 369.602 L 587.604 369.602 C 602.954 369.602 618.117 360.731 618.117 339.767 C 618.117 317.943 605.506 309.932 588.457 309.932 Z M 587.604 358.012 L 581.726 358.012 L 581.726 321.529 L 588.037 321.529 C 600.641 321.529 605.842 327.576 605.842 339.767 C 605.842 350.679 600.131 358.012 587.604 358.012 Z " fill-opacity="1" fill="#343d40" stroke="none" stroke-width="1" stroke-linecap="square" stroke-linejoin="miter"/><defs/></g></g></svg>